<?xml version="1.0" standalone="no"?>
<!DOCTYPE svg PUBLIC "-//W3C//DTD SVG 20010904//EN"
 "http://www.w3.org/TR/2001/REC-SVG-20010904/DTD/svg10.dtd">
<svg version="1.0" xmlns="http://www.w3.org/2000/svg"
 width="1500.000000pt" height="1500.000000pt" viewBox="0 0 1500.000000 1500.000000"
 preserveAspectRatio="xMidYMid meet">
<metadata>
Created by potrace 1.11, written by Peter Selinger 2001-2013
</metadata>
<g transform="translate(0.000000,1500.000000) scale(0.100000,-0.100000)"
fill="#000000" stroke="none">
<path d="M7198 14995 c-2 -1 -68 -6 -148 -9 -80 -4 -156 -8 -170 -10 -14 -3
-59 -7 -100 -11 -41 -3 -91 -8 -110 -10 -48 -6 -141 -17 -165 -20 -11 -1 -42
-5 -70 -9 -27 -4 -61 -9 -75 -11 -104 -16 -177 -28 -345 -61 -71 -14 -141 -27
-155 -30 -64 -12 -360 -89 -498 -130 -288 -85 -697 -236 -957 -354 -105 -48
-354 -171 -435 -215 -266 -145 -575 -335 -780 -480 -86 -60 -331 -244 -340
-254 -3 -3 -27 -24 -55 -46 -27 -21 -52 -42 -55 -45 -3 -3 -25 -21 -50 -41
-25 -21 -59 -50 -77 -65 -17 -16 -55 -49 -84 -74 -135 -115 -443 -422 -614
-611 -358 -398 -668 -827 -960 -1334 -194 -336 -411 -821 -551 -1230 -79 -229
-199 -661 -230 -825 -3 -14 -10 -45 -15 -70 -6 -25 -17 -79 -24 -120 -8 -41
-16 -86 -19 -100 -17 -88 -52 -324 -62 -420 -3 -25 -7 -56 -9 -70 -2 -14 -7
-61 -10 -105 -4 -44 -9 -93 -11 -110 -31 -256 -25 -1041 11 -1350 2 -22 7 -67
10 -100 3 -33 10 -91 16 -130 5 -38 12 -88 14 -110 3 -22 7 -51 10 -65 2 -14
7 -38 9 -55 2 -16 8 -50 12 -75 4 -25 8 -49 9 -55 10 -86 113 -536 170 -745
74 -272 237 -715 365 -995 16 -33 38 -82 50 -110 36 -81 165 -335 199 -393 17
-29 31 -55 31 -58 0 -5 54 -99 97 -169 7 -11 15 -27 20 -35 13 -28 177 -284
242 -380 405 -594 882 -1115 1461 -1596 72 -60 287 -226 371 -287 13 -9 52
-37 86 -61 150 -109 547 -353 748 -461 157 -84 355 -180 505 -245 80 -34 159
-69 176 -76 234 -103 650 -240 1024 -337 182 -48 530 -116 720 -142 58 -8 99
-14 130 -20 14 -3 57 -7 95 -10 39 -3 77 -8 85 -10 8 -2 53 -7 100 -10 47 -4
101 -8 120 -10 256 -25 1049 -25 1179 0 11 2 56 6 99 9 42 4 93 8 112 11 19 2
64 7 100 10 36 4 121 15 190 27 69 11 134 21 145 23 71 11 170 28 230 40 39 8
81 16 95 19 14 2 45 9 70 16 25 7 56 14 70 16 40 7 324 82 455 120 427 125
1027 373 1385 574 36 20 90 50 120 67 419 228 935 598 1340 961 97 87 426 414
515 513 605 665 1055 1365 1389 2159 31 74 61 144 66 155 4 11 18 47 30 80 12
33 25 69 30 80 79 205 247 778 276 940 2 17 7 38 10 47 3 9 6 25 8 35 33 164
57 296 61 328 3 22 10 63 15 90 5 28 12 74 15 104 4 30 8 61 10 70 1 9 6 45
10 81 4 36 9 78 11 93 2 16 6 63 10 105 3 43 8 93 10 112 23 246 23 1046 -1
1169 -1 9 -6 57 -9 106 -4 50 -9 101 -11 115 -2 14 -7 52 -10 85 -3 33 -8 69
-10 80 -2 11 -7 43 -10 70 -9 77 -22 161 -50 320 -24 134 -46 237 -77 365 -11
47 -22 94 -24 105 -21 110 -163 569 -247 795 -184 497 -461 1041 -762 1495
-128 193 -329 467 -428 585 -7 8 -33 40 -57 70 -25 30 -47 57 -50 60 -3 3 -34
39 -70 80 -102 117 -107 124 -161 181 -209 222 -416 420 -664 634 -81 70 -322
261 -420 332 -712 517 -1486 898 -2305 1134 -268 78 -600 155 -785 184 -22 3
-89 14 -150 25 -60 10 -150 23 -200 29 -49 6 -115 13 -145 17 -30 4 -71 8 -90
9 -151 11 -229 18 -250 22 -29 4 -777 12 -782 8z"/>
</g>
</svg>
