<?xml version="1.0" encoding="UTF-8"?>
<svg xmlns="http://www.w3.org/2000/svg" xmlns:xlink="http://www.w3.org/1999/xlink" width="375pt" height="374.999991pt" viewBox="0 0 375 374.999991" version="1.2">
<defs>
<clipPath id="clip1">
  <path d="M 202 219 L 354.460938 219 L 354.460938 239 L 202 239 Z M 202 219 "/>
</clipPath>
</defs>
<g id="surface1">
<path style=" stroke:none;fill-rule:nonzero;fill:rgb(78.819275%,51.368713%,35.289001%);fill-opacity:1;" d="M -7.773438 368.472656 L -10.152344 323.492188 L -38.675781 280.511719 L -38.675781 304.488281 C -32.988281 317.632812 -25.949219 334.460938 -25.949219 334.460938 L -27.46875 365.140625 L -36.582031 355.652344 L -39.121094 323.324219 C -41.1875 319.570312 -45.171875 317.730469 -46.609375 319.8125 C -47.9375 326.472656 -47.050781 358.324219 -47.050781 358.324219 C -44.1875 369.742188 -26.886719 394.253906 -26.886719 394.253906 L -13.621094 415.660156 L 7.367188 391.253906 L -7.773438 368.472656 "/>
<path style=" stroke:none;fill-rule:nonzero;fill:rgb(11.369324%,10.198975%,11.759949%);fill-opacity:1;" d="M -7.773438 368.472656 L -6.800781 368.421875 L -9.183594 323.441406 C -9.191406 323.265625 -9.246094 323.097656 -9.34375 322.949219 L -37.867188 279.96875 C -38.101562 279.613281 -38.546875 279.453125 -38.960938 279.578125 C -39.375 279.699219 -39.652344 280.082031 -39.652344 280.511719 L -39.652344 304.488281 C -39.652344 304.625 -39.628906 304.753906 -39.574219 304.878906 C -36.734375 311.445312 -33.550781 318.9375 -31.078125 324.785156 C -29.84375 327.710938 -28.789062 330.222656 -28.039062 332.007812 C -27.667969 332.898438 -27.367188 333.605469 -27.164062 334.09375 C -26.960938 334.578125 -26.855469 334.839844 -26.851562 334.839844 L -25.949219 334.460938 L -26.925781 334.414062 L -28.335938 362.835938 L -35.640625 355.230469 L -38.148438 323.25 C -38.160156 323.113281 -38.203125 322.972656 -38.265625 322.855469 C -39.074219 321.390625 -40.140625 320.195312 -41.28125 319.34375 C -41.855469 318.917969 -42.445312 318.582031 -43.039062 318.34375 C -43.640625 318.105469 -44.246094 317.964844 -44.851562 317.964844 C -45.335938 317.964844 -45.824219 318.058594 -46.273438 318.273438 C -46.71875 318.488281 -47.117188 318.828125 -47.414062 319.257812 C -47.488281 319.367188 -47.542969 319.496094 -47.566406 319.621094 C -47.722656 320.402344 -47.839844 321.429688 -47.9375 322.671875 C -48.085938 324.535156 -48.179688 326.871094 -48.238281 329.460938 C -48.296875 332.050781 -48.320312 334.894531 -48.320312 337.753906 C -48.320312 347.933594 -48.03125 358.347656 -48.03125 358.351562 C -48.027344 358.421875 -48.019531 358.496094 -48 358.5625 C -47.621094 360.0625 -47.023438 361.734375 -46.261719 363.527344 C -44.933594 366.664062 -43.109375 370.179688 -41.117188 373.695312 C -38.136719 378.96875 -34.785156 384.242188 -32.171875 388.203125 C -29.558594 392.167969 -27.691406 394.816406 -27.6875 394.820312 L -26.890625 394.257812 L -27.71875 394.773438 L -14.453125 416.175781 C -14.289062 416.441406 -14.003906 416.609375 -13.695312 416.632812 C -13.386719 416.660156 -13.085938 416.535156 -12.882812 416.296875 L 8.105469 391.894531 C 8.390625 391.5625 8.421875 391.078125 8.175781 390.714844 L -6.964844 367.933594 L -7.773438 368.472656 L -6.800781 368.421875 L -7.773438 368.472656 L -8.589844 369.015625 L 6.140625 391.179688 L -13.492188 414.011719 L -26.058594 393.742188 L -26.09375 393.691406 C -26.09375 393.691406 -26.109375 393.667969 -26.140625 393.625 C -26.644531 392.910156 -30.96875 386.71875 -35.503906 379.347656 C -37.773438 375.660156 -40.09375 371.675781 -42.015625 367.941406 C -42.972656 366.078125 -43.832031 364.273438 -44.535156 362.601562 C -45.234375 360.933594 -45.777344 359.398438 -46.105469 358.085938 L -47.050781 358.324219 L -46.074219 358.296875 C -46.074219 358.296875 -46.082031 358.136719 -46.089844 357.832031 C -46.144531 355.707031 -46.367188 346.628906 -46.367188 337.753906 C -46.367188 333.953125 -46.328125 330.1875 -46.214844 327.03125 C -46.160156 325.453125 -46.085938 324.027344 -45.992188 322.824219 C -45.898438 321.628906 -45.78125 320.648438 -45.652344 320.007812 L -46.609375 319.816406 L -45.808594 320.367188 C -45.691406 320.203125 -45.570312 320.105469 -45.425781 320.035156 C -45.277344 319.964844 -45.09375 319.921875 -44.851562 319.921875 C -44.554688 319.917969 -44.175781 319.992188 -43.761719 320.160156 C -43.140625 320.40625 -42.4375 320.855469 -41.773438 321.476562 C -41.109375 322.097656 -40.480469 322.886719 -39.976562 323.800781 L -39.121094 323.328125 L -40.09375 323.402344 L -37.558594 355.730469 C -37.542969 355.957031 -37.445312 356.167969 -37.289062 356.332031 L -28.175781 365.820312 C -27.90625 366.097656 -27.492188 366.195312 -27.128906 366.054688 C -26.761719 365.921875 -26.515625 365.578125 -26.496094 365.191406 L -24.976562 334.511719 C -24.96875 334.363281 -24.996094 334.222656 -25.050781 334.085938 C -25.050781 334.085938 -32.089844 317.253906 -37.78125 304.101562 L -38.679688 304.488281 L -37.703125 304.488281 L -37.703125 283.75 L -11.117188 323.8125 L -8.75 368.523438 C -8.742188 368.703125 -8.6875 368.871094 -8.589844 369.015625 L -7.773438 368.472656 "/>
<path style=" stroke:none;fill-rule:nonzero;fill:rgb(58.428955%,37.649536%,25.489807%);fill-opacity:1;" d="M 0.0820312 398.230469 L -13.972656 371.933594 L -16.351562 326.949219 L -37.699219 288.160156 L -37.699219 283.75 L -11.117188 323.8125 L -8.75 368.523438 C -8.742188 368.703125 -8.6875 368.871094 -8.589844 369.015625 L -7.773438 368.472656 L -8.589844 369.015625 L 6.144531 391.179688 L 0.0820312 398.230469 "/>
<path style=" stroke:none;fill-rule:nonzero;fill:rgb(8.628845%,7.449341%,8.628845%);fill-opacity:1;" d="M 0.574219 399.152344 L 0.0820312 398.230469 L 6.144531 391.179688 L -8.585938 369.011719 L -7.773438 368.472656 L 7.367188 391.253906 L 0.574219 399.152344 M -8.585938 369.011719 C -8.683594 368.867188 -8.738281 368.699219 -8.75 368.523438 L -11.113281 323.808594 L -37.699219 283.746094 L -37.699219 288.15625 L -38.675781 286.386719 L -38.675781 280.511719 L -10.152344 323.492188 L -7.773438 368.472656 L -8.585938 369.011719 "/>
<path style=" stroke:none;fill-rule:nonzero;fill:rgb(74.119568%,73.728943%,73.728943%);fill-opacity:1;" d="M -21.621094 408.148438 L -29.5625 395.40625 L -0.273438 373.054688 L 7.367188 384.292969 L -21.621094 408.148438 "/>
<path style=" stroke:none;fill-rule:nonzero;fill:rgb(11.369324%,10.198975%,11.759949%);fill-opacity:1;" d="M -21.621094 408.148438 L -20.792969 407.628906 L -28.265625 395.644531 L -0.503906 374.457031 L 6.058594 384.105469 L -22.242188 407.390625 L -21.621094 408.148438 L -20.792969 407.628906 L -21.621094 408.148438 L -21.003906 408.902344 L 7.984375 385.046875 C 8.375 384.726562 8.457031 384.160156 8.171875 383.742188 L 0.527344 372.507812 C 0.378906 372.285156 0.144531 372.132812 -0.121094 372.089844 C -0.386719 372.046875 -0.65625 372.117188 -0.871094 372.277344 L -30.160156 394.628906 C -30.558594 394.933594 -30.664062 395.496094 -30.394531 395.925781 L -22.449219 408.664062 C -22.300781 408.902344 -22.058594 409.066406 -21.777344 409.113281 C -21.5 409.15625 -21.222656 409.082031 -21.003906 408.902344 L -21.621094 408.148438 "/>
<path style=" stroke:none;fill-rule:nonzero;fill:rgb(30.198669%,46.669006%,30.589294%);fill-opacity:1;" d="M 297.660156 231.101562 C 291.238281 168.03125 234.851562 122.105469 171.726562 128.519531 C 108.589844 134.945312 62.609375 191.257812 69.03125 254.328125 C 75.449219 317.394531 131.839844 363.324219 194.976562 356.910156 C 258.101562 350.496094 304.078125 294.167969 297.660156 231.101562 "/>
<path style=" stroke:none;fill-rule:nonzero;fill:rgb(100%,100%,100%);fill-opacity:1;" d="M 251.761719 185.972656 C 251.050781 185.617188 250.304688 185.316406 249.554688 185.042969 L 251.773438 185.777344 C 251.773438 185.84375 251.773438 185.90625 251.761719 185.972656 C 256.605469 188.320312 260.570312 192.453125 262.644531 197.421875 C 256.695312 197.644531 251.261719 191.886719 251.761719 185.972656 Z M 257.039062 155.429688 C 244.894531 158.105469 231.988281 157.277344 220.34375 152.910156 C 214.539062 150.722656 208 147.691406 202.488281 150.523438 C 199.152344 152.242188 197.171875 155.691406 194.847656 158.628906 C 192.523438 161.554688 189.082031 164.292969 185.40625 163.597656 C 187.535156 165.828125 189.753906 168.191406 190.554688 171.179688 C 191.355469 174.15625 190.183594 177.921875 187.257812 178.917969 C 183.515625 180.191406 180.089844 176.609375 177.464844 173.671875 C 174.824219 170.746094 170.175781 168.03125 167.316406 170.761719 C 164.519531 173.421875 166.867188 178.128906 169.574219 180.898438 C 172.277344 183.664062 175.597656 187.152344 174.273438 190.785156 C 171.070312 192.515625 167.851562 194.628906 166.210938 197.867188 C 164.582031 201.109375 165.199219 205.722656 168.390625 207.453125 C 171.777344 209.277344 176.097656 207.007812 178.316406 203.863281 C 180.546875 200.726562 181.507812 196.859375 183.449219 193.539062 C 185.40625 190.234375 189.082031 187.324219 192.8125 188.230469 C 195.160156 188.804688 196.882812 190.707031 198.835938 192.097656 C 209.578125 199.757812 226.789062 192.242188 236.570312 201.09375 C 240.074219 204.28125 241.019531 211.257812 236.597656 212.964844 C 232.160156 214.667969 227.222656 209.226562 222.835938 211.046875 C 219.726562 212.359375 218.886719 216.609375 215.984375 218.339844 C 211.953125 220.753906 207.1875 217.105469 203.300781 214.457031 C 193.480469 207.730469 179.667969 207.023438 169.546875 213.292969 C 159.410156 219.574219 153.898438 232.726562 157.152344 244.175781 C 160.410156 255.625 172.566406 264.019531 184.371094 262.40625 C 187.179688 262.023438 189.921875 261.148438 192.746094 261.121094 C 195.582031 261.105469 198.679688 262.207031 199.964844 264.726562 C 200.898438 266.550781 200.714844 268.726562 201.09375 270.746094 C 202.226562 276.675781 208 280.503906 210.730469 285.882812 C 213.949219 292.203125 212.621094 299.730469 212.253906 306.8125 C 211.886719 313.894531 213.265625 322.167969 219.449219 325.644531 C 224.4375 328.4375 230.949219 326.902344 235.492188 323.429688 C 240.035156 319.953125 243.03125 314.890625 245.917969 309.945312 C 249.792969 303.335938 253.757812 296.359375 254.003906 288.714844 C 254.125 285.121094 253.402344 281.488281 253.980469 277.933594 C 254.976562 271.914062 259.492188 267.207031 263.195312 262.351562 C 266.898438 257.5 270.0625 251.207031 267.910156 245.5 C 254.859375 245.75 243.121094 233.027344 244.421875 220.058594 C 246.628906 229.945312 256.800781 237.382812 266.898438 236.476562 C 270.0625 236.1875 273.316406 235.074219 275.328125 232.621094 C 277.347656 230.167969 277.652344 226.183594 275.40625 223.953125 C 273.488281 222.066406 270.523438 221.921875 267.855469 221.828125 C 265.179688 221.722656 262.171875 221.421875 260.453125 219.363281 C 258.746094 217.304688 260.042969 213.160156 262.695312 213.578125 C 264.46875 213.867188 265.363281 215.820312 266.714844 217.015625 C 270.324219 220.214844 276.21875 217.355469 280.761719 219.023438 C 290.542969 222.589844 285.410156 241.59375 295.308594 244.792969 C 294.5625 241.789062 294.902344 238.328125 296.582031 235.820312 C 296.492188 233.945312 296.347656 232.058594 296.148438 230.167969 C 293.078125 199.964844 278.414062 173.75 257.039062 155.429688 "/>
<path style=" stroke:none;fill-rule:nonzero;fill:rgb(30.198669%,46.669006%,30.589294%);fill-opacity:1;" d="M 252.824219 187.71875 C 253.058594 189.722656 254.003906 191.691406 255.554688 193.304688 C 257.089844 194.917969 258.996094 195.953125 260.976562 196.28125 C 259.140625 192.765625 256.261719 189.75 252.824219 187.71875 Z M 262.75 198.445312 C 262.722656 198.445312 262.710938 198.445312 262.683594 198.445312 C 259.570312 198.5625 256.421875 197.210938 254.058594 194.734375 C 251.867188 192.4375 250.65625 189.515625 250.695312 186.617188 C 250.210938 186.394531 249.710938 186.195312 249.199219 186.027344 C 248.675781 185.828125 248.386719 185.25 248.570312 184.714844 C 248.753906 184.175781 249.332031 183.886719 249.871094 184.058594 L 252.101562 184.792969 C 252.363281 184.871094 252.5625 185.054688 252.691406 185.277344 C 257.550781 187.78125 261.515625 192.03125 263.601562 197.015625 C 263.734375 197.332031 263.707031 197.683594 263.523438 197.972656 C 263.351562 198.234375 263.066406 198.40625 262.75 198.445312 Z M 191.117188 260.1875 C 191.65625 260.136719 192.195312 260.097656 192.746094 260.097656 C 195.648438 260.070312 199.296875 261.160156 200.886719 264.253906 C 201.59375 265.644531 201.738281 267.140625 201.871094 268.582031 C 201.9375 269.25 201.988281 269.90625 202.121094 270.550781 C 202.738281 273.828125 204.917969 276.453125 207.238281 279.230469 C 208.839844 281.160156 210.496094 283.140625 211.652344 285.410156 C 214.449219 290.902344 213.988281 297.160156 213.542969 303.21875 C 213.449219 304.4375 213.34375 305.65625 213.292969 306.863281 C 213.015625 311.992188 213.527344 321.132812 219.949219 324.738281 C 224.085938 327.074219 230.320312 326.089844 234.863281 322.601562 C 239.3125 319.207031 242.347656 314.011719 245.023438 309.421875 C 248.636719 303.257812 252.71875 296.253906 252.96875 288.675781 C 253.007812 287.324219 252.929688 285.90625 252.851562 284.554688 C 252.71875 282.339844 252.585938 280.042969 252.96875 277.761719 C 253.835938 272.492188 257.207031 268.242188 260.464844 264.148438 C 261.109375 263.335938 261.75 262.535156 262.367188 261.722656 C 265.453125 257.683594 268.722656 251.820312 267.160156 246.535156 C 260.910156 246.433594 254.703125 243.507812 250.027344 238.433594 C 245.15625 233.171875 242.742188 226.433594 243.382812 219.953125 C 243.4375 219.453125 243.777344 219.0625 244.355469 219.035156 C 244.867188 218.996094 245.3125 219.335938 245.433594 219.835938 C 247.507812 229.148438 257.289062 236.292969 266.804688 235.441406 L 267.003906 235.429688 C 270.296875 235.085938 272.976562 233.867188 274.539062 231.964844 C 276.152344 229.984375 276.601562 226.589844 274.671875 224.6875 C 273.003906 223.046875 270.128906 222.945312 267.816406 222.863281 C 264.71875 222.746094 261.582031 222.328125 259.664062 220.019531 C 258.585938 218.734375 258.339844 216.714844 259.046875 214.984375 C 259.742188 213.265625 261.253906 212.308594 262.855469 212.554688 C 264.441406 212.804688 265.425781 214 266.292969 215.035156 C 266.648438 215.46875 267.003906 215.886719 267.398438 216.242188 C 269.15625 217.789062 271.714844 217.660156 274.421875 217.515625 C 276.667969 217.382812 278.976562 217.265625 281.117188 218.039062 C 286.511719 220.019531 287.773438 225.972656 288.980469 231.730469 C 289.980469 236.4375 290.910156 240.921875 293.957031 242.996094 C 293.707031 240.308594 294.257812 237.605469 295.53125 235.546875 C 295.441406 233.75 295.296875 231.980469 295.125 230.273438 C 292.210938 201.59375 278.582031 175.429688 256.75 156.542969 C 244.511719 159.140625 231.464844 158.195312 219.988281 153.867188 L 218.332031 153.238281 C 214.304688 151.691406 210.128906 150.078125 206.320312 150.472656 C 205.101562 150.589844 203.996094 150.917969 202.960938 151.441406 C 200.558594 152.675781 198.902344 154.917969 197.144531 157.292969 C 196.65625 157.960938 196.160156 158.628906 195.660156 159.273438 C 194.230469 161.054688 191.378906 164.058594 187.796875 164.636719 C 189.359375 166.40625 190.894531 168.464844 191.550781 170.90625 C 192.457031 174.273438 191.195312 178.65625 187.585938 179.886719 C 187.152344 180.046875 186.707031 180.136719 186.261719 180.191406 C 182.269531 180.597656 178.777344 176.6875 176.6875 174.367188 C 174.957031 172.425781 172.066406 170.457031 169.808594 170.679688 C 169.125 170.761719 168.535156 171.023438 168.035156 171.507812 C 167.417969 172.097656 167.105469 172.820312 167.089844 173.738281 C 167.050781 176.019531 168.796875 178.628906 170.308594 180.175781 C 172.90625 182.8125 176.820312 186.824219 175.246094 191.140625 C 175.152344 191.375 174.980469 191.574219 174.757812 191.703125 C 171.855469 193.265625 168.679688 195.285156 167.144531 198.328125 C 165.777344 201.027344 166.160156 205.066406 168.890625 206.535156 C 171.425781 207.914062 175.324219 206.300781 177.476562 203.269531 C 178.671875 201.59375 179.472656 199.703125 180.324219 197.710938 C 180.980469 196.148438 181.679688 194.535156 182.558594 193.027344 C 184.121094 190.378906 187.0625 187.429688 190.683594 187.0625 C 191.484375 186.984375 192.285156 187.035156 193.0625 187.230469 C 194.992188 187.691406 196.472656 188.898438 197.917969 190.066406 C 198.417969 190.472656 198.929688 190.878906 199.441406 191.257812 C 204.351562 194.761719 210.941406 194.929688 217.308594 195.101562 C 224.476562 195.285156 231.894531 195.480469 237.265625 200.332031 C 239.695312 202.535156 241.046875 206.40625 240.46875 209.515625 C 240.074219 211.636719 238.828125 213.199219 236.964844 213.921875 C 236.464844 214.117188 235.941406 214.234375 235.402344 214.289062 C 233.339844 214.496094 231.320312 213.710938 229.375 212.9375 C 227.117188 212.058594 224.976562 211.285156 223.246094 212.003906 C 221.878906 212.582031 220.972656 213.933594 220.015625 215.375 C 219.054688 216.820312 218.085938 218.300781 216.523438 219.230469 C 215.683594 219.730469 214.777344 220.03125 213.816406 220.136719 C 210.234375 220.492188 206.648438 218.011719 203.472656 215.835938 L 202.722656 215.3125 C 196.867188 211.3125 189.359375 209.433594 182.109375 210.167969 C 177.765625 210.617188 173.601562 211.992188 170.085938 214.183594 C 160.199219 220.292969 155.066406 233.082031 158.152344 243.886719 C 161.289062 254.929688 173.011719 262.929688 184.226562 261.382812 C 185.234375 261.25 186.234375 261.042969 187.230469 260.84375 C 188.492188 260.582031 189.792969 260.320312 191.117188 260.1875 Z M 226.789062 328.042969 C 223.925781 328.332031 221.210938 327.820312 218.9375 326.550781 C 211.546875 322.390625 210.929688 312.359375 211.21875 306.757812 C 211.285156 305.539062 211.375 304.308594 211.46875 303.0625 C 211.902344 297.289062 212.347656 291.324219 209.8125 286.351562 C 208.761719 284.28125 207.175781 282.390625 205.652344 280.554688 C 203.261719 277.699219 200.792969 274.746094 200.085938 270.941406 C 199.941406 270.234375 199.875 269.5 199.808594 268.78125 C 199.691406 267.46875 199.574219 266.234375 199.046875 265.199219 C 197.890625 262.941406 194.9375 262.144531 192.757812 262.15625 C 191.050781 262.167969 189.410156 262.511719 187.652344 262.863281 C 186.601562 263.074219 185.5625 263.285156 184.511719 263.429688 C 184.25 263.46875 183.988281 263.492188 183.738281 263.519531 C 171.855469 264.726562 159.488281 256.175781 156.15625 244.464844 C 152.832031 232.78125 158.347656 219.007812 168.996094 212.425781 C 172.777344 210.078125 177.238281 208.582031 181.902344 208.109375 C 189.621094 207.335938 197.644531 209.332031 203.890625 213.605469 L 204.652344 214.128906 C 207.527344 216.109375 210.785156 218.367188 213.609375 218.078125 C 214.265625 218.011719 214.867188 217.800781 215.457031 217.460938 C 216.613281 216.765625 217.429688 215.535156 218.292969 214.234375 C 219.371094 212.609375 220.488281 210.917969 222.441406 210.105469 C 222.980469 209.867188 223.558594 209.722656 224.148438 209.671875 C 226.183594 209.460938 228.195312 210.25 230.125 211.007812 C 232.355469 211.886719 234.496094 212.660156 236.214844 211.992188 C 237.710938 211.414062 238.25 210.117188 238.433594 209.132812 C 238.878906 206.71875 237.777344 203.597656 235.875 201.867188 C 231.082031 197.527344 224.359375 197.34375 217.246094 197.160156 C 210.574219 196.988281 203.667969 196.804688 198.246094 192.9375 C 197.695312 192.542969 197.144531 192.109375 196.617188 191.679688 C 195.292969 190.601562 194.046875 189.59375 192.574219 189.238281 C 189.777344 188.558594 186.378906 190.628906 184.34375 194.078125 C 183.527344 195.46875 182.898438 196.949219 182.230469 198.511719 C 181.375 200.53125 180.484375 202.617188 179.171875 204.464844 C 176.386719 208.371094 171.359375 210.222656 167.90625 208.359375 C 164.070312 206.300781 163.46875 201.027344 165.292969 197.394531 C 167.011719 193.972656 170.320312 191.78125 173.40625 190.078125 C 174.128906 187.324219 171.660156 184.503906 168.835938 181.617188 C 166.960938 179.691406 164.976562 176.609375 165.015625 173.699219 C 165.042969 172.253906 165.59375 170.96875 166.605469 170.011719 C 167.445312 169.210938 168.457031 168.742188 169.597656 168.621094 C 172.789062 168.308594 176.242188 170.773438 178.238281 172.988281 C 180.835938 175.902344 183.976562 178.945312 186.917969 177.933594 C 189.320312 177.121094 190.210938 173.921875 189.554688 171.441406 C 188.808594 168.648438 186.601562 166.339844 184.65625 164.308594 C 184.34375 163.992188 184.277344 163.496094 184.488281 163.101562 C 184.710938 162.707031 185.15625 162.496094 185.589844 162.589844 C 186.089844 162.679688 186.613281 162.695312 187.125 162.640625 C 190.160156 162.339844 192.757812 159.585938 194.03125 157.988281 C 194.53125 157.355469 195.003906 156.714844 195.476562 156.058594 C 197.300781 153.605469 199.179688 151.0625 202.015625 149.605469 C 203.261719 148.964844 204.652344 148.558594 206.109375 148.414062 C 210.402344 147.980469 214.816406 149.671875 219.070312 151.3125 L 220.710938 151.941406 C 231.988281 156.175781 244.828125 157.066406 256.816406 154.417969 C 257.117188 154.339844 257.457031 154.433594 257.707031 154.640625 C 280.171875 173.894531 294.191406 200.675781 297.1875 230.066406 C 297.371094 231.902344 297.515625 233.828125 297.621094 235.769531 C 297.632812 235.992188 297.566406 236.214844 297.449219 236.398438 C 296.019531 238.523438 295.585938 241.644531 296.320312 244.542969 C 296.414062 244.910156 296.292969 245.289062 296.019531 245.554688 C 295.742188 245.800781 295.347656 245.894531 294.996094 245.777344 C 289.441406 243.980469 288.179688 237.972656 286.960938 232.164062 C 285.816406 226.707031 284.726562 221.566406 280.40625 219.980469 C 278.660156 219.351562 276.5625 219.46875 274.527344 219.574219 C 271.519531 219.730469 268.40625 219.902344 266.03125 217.789062 C 265.53125 217.355469 265.113281 216.84375 264.707031 216.359375 C 263.984375 215.480469 263.351562 214.734375 262.539062 214.601562 C 261.632812 214.445312 261.121094 215.390625 260.964844 215.757812 C 260.542969 216.792969 260.660156 218 261.253906 218.695312 C 262.65625 220.371094 265.269531 220.699219 267.882812 220.792969 C 270.5625 220.882812 273.894531 221.003906 276.128906 223.21875 C 278.949219 226 278.332031 230.617188 276.128906 233.277344 C 274.222656 235.597656 271.058594 237.09375 267.214844 237.488281 L 266.988281 237.5 C 258.507812 238.261719 250.105469 233.554688 245.839844 226.351562 C 246.679688 230.183594 248.636719 233.894531 251.550781 237.042969 C 256.015625 241.867188 261.960938 244.582031 267.882812 244.464844 C 268.328125 244.464844 268.722656 244.726562 268.878906 245.132812 C 270.769531 250.15625 269.089844 256.332031 264.007812 262.984375 C 263.394531 263.796875 262.734375 264.609375 262.09375 265.433594 C 258.996094 269.332031 255.789062 273.355469 255.003906 278.105469 C 254.660156 280.148438 254.792969 282.234375 254.910156 284.425781 C 255.003906 285.839844 255.082031 287.296875 255.042969 288.738281 C 254.78125 296.84375 250.550781 304.085938 246.8125 310.472656 C 244.039062 315.21875 240.902344 320.59375 236.125 324.253906 C 233.367188 326.367188 230.046875 327.71875 226.789062 328.042969 "/>
<path style=" stroke:none;fill-rule:nonzero;fill:rgb(100%,100%,100%);fill-opacity:1;" d="M 69.097656 241.410156 C 70.972656 239.625 73.746094 238.8125 75.777344 240.320312 C 76.160156 237.160156 74.441406 233.867188 71.644531 232.359375 C 76.683594 233.238281 80.519531 227.808594 81.882812 222.890625 C 83.25 217.960938 83.90625 212.253906 87.988281 209.171875 C 90.511719 207.269531 93.871094 206.8125 96.535156 205.109375 C 99.1875 203.402344 100.816406 199.179688 98.347656 197.210938 C 101.472656 199.652344 106.578125 197.921875 108.367188 194.394531 C 110.152344 190.863281 109.101562 186.378906 106.632812 183.285156 C 104.78125 180.964844 101.617188 179.167969 98.898438 180.375 C 96.222656 181.566406 95.433594 184.882812 94.460938 187.652344 C 93.488281 190.417969 91.035156 193.460938 88.238281 192.582031 C 90.222656 184.765625 94.882812 177.644531 101.261719 172.699219 C 101.195312 173.5 101.117188 174.289062 101.050781 175.089844 C 103.375 178.550781 109.441406 178.367188 111.570312 174.773438 C 113.683594 171.179688 110.914062 165.789062 106.75 165.421875 C 110.609375 163.742188 113.445312 160.230469 117.304688 158.5625 C 121.167969 156.898438 127.113281 158.65625 126.96875 162.863281 C 126.878906 165.761719 124.003906 167.640625 122.203125 169.921875 C 120.417969 172.203125 120.679688 176.792969 123.59375 176.714844 C 124.449219 176.6875 125.210938 176.214844 125.933594 175.742188 C 137.90625 168.03125 149.878906 160.320312 161.867188 152.609375 C 164.152344 151.128906 166.738281 149.054688 166.355469 146.355469 C 165.816406 142.394531 160.144531 142.25 156.246094 143.191406 C 139.664062 147.257812 122.914062 151.375 107.667969 159.089844 C 105.371094 160.253906 103.125 161.515625 100.90625 162.863281 C 81.109375 183.429688 69.121094 211.285156 69.097656 241.410156 "/>
<path style=" stroke:none;fill-rule:nonzero;fill:rgb(30.198669%,46.669006%,30.589294%);fill-opacity:1;" d="M 101.566406 163.679688 C 81.804688 184.253906 70.683594 211.0625 70.148438 239.363281 C 71.644531 238.550781 73.3125 238.289062 74.753906 238.679688 C 74.480469 236.464844 73.113281 234.328125 71.144531 233.277344 C 70.699219 233.027344 70.5 232.503906 70.660156 232.019531 C 70.828125 231.546875 71.316406 231.246094 71.8125 231.335938 C 72.300781 231.429688 72.773438 231.441406 73.230469 231.402344 C 76.921875 231.023438 79.785156 226.578125 80.886719 222.617188 C 81.136719 221.738281 81.347656 220.820312 81.570312 219.914062 C 82.632812 215.574219 83.734375 211.085938 87.371094 208.347656 C 88.84375 207.230469 90.535156 206.589844 92.175781 205.972656 C 93.542969 205.460938 94.828125 204.976562 95.972656 204.242188 C 97.375 203.335938 98.453125 201.566406 98.53125 200.046875 C 98.570312 199.179688 98.296875 198.496094 97.703125 198.027344 C 97.257812 197.671875 97.179688 197.027344 97.535156 196.582031 C 97.886719 196.125 98.53125 196.046875 98.976562 196.398438 C 100.148438 197.304688 101.472656 197.382812 102.378906 197.292969 C 104.492188 197.066406 106.527344 195.71875 107.445312 193.921875 C 109.140625 190.5625 107.851562 186.484375 105.816406 183.925781 C 104.335938 182.050781 101.484375 180.359375 99.320312 181.316406 C 97.390625 182.167969 96.589844 184.582031 95.800781 186.917969 L 95.445312 187.992188 C 94.5 190.65625 92.347656 193.476562 89.65625 193.738281 C 89.078125 193.800781 88.5 193.738281 87.921875 193.566406 C 87.398438 193.394531 87.097656 192.859375 87.226562 192.320312 C 89.289062 184.253906 94.042969 176.988281 100.632812 171.886719 C 100.960938 171.640625 101.40625 171.597656 101.761719 171.796875 C 102.128906 171.992188 102.339844 172.386719 102.300781 172.804688 L 102.117188 174.785156 C 103.125 176.03125 104.925781 176.699219 106.804688 176.515625 C 108.511719 176.332031 109.925781 175.507812 110.675781 174.25 C 111.488281 172.871094 111.449219 171.035156 110.597656 169.355469 C 109.730469 167.679688 108.261719 166.601562 106.660156 166.457031 C 106.1875 166.417969 105.804688 166.066406 105.726562 165.59375 C 105.660156 165.132812 105.910156 164.675781 106.34375 164.476562 C 108.128906 163.691406 109.703125 162.484375 111.359375 161.199219 C 113.066406 159.875 114.824219 158.511719 116.898438 157.617188 C 117.6875 157.277344 118.554688 157.054688 119.484375 156.964844 C 122.097656 156.699219 124.722656 157.460938 126.339844 158.96875 C 127.480469 160.03125 128.058594 161.394531 128.007812 162.890625 C 127.914062 165.382812 126.246094 167.113281 124.632812 168.78125 C 124.066406 169.371094 123.503906 169.945312 123.015625 170.5625 C 122.113281 171.71875 121.835938 173.777344 122.425781 174.957031 C 122.769531 175.625 123.242188 175.691406 123.570312 175.679688 C 123.570312 175.679688 123.570312 175.679688 123.582031 175.679688 C 124.199219 175.613281 124.738281 175.296875 125.378906 174.878906 L 161.300781 151.742188 C 164.28125 149.816406 165.570312 148.148438 165.332031 146.496094 C 164.910156 143.429688 160.160156 143.679688 158.714844 143.824219 C 157.964844 143.902344 157.21875 144.019531 156.496094 144.203125 C 140.203125 148.191406 123.34375 152.320312 108.140625 160.007812 C 105.976562 161.109375 103.769531 162.339844 101.566406 163.679688 Z M 69.203125 242.433594 C 69.019531 242.445312 68.847656 242.433594 68.675781 242.351562 C 68.308594 242.195312 68.058594 241.816406 68.058594 241.410156 C 68.085938 211.769531 79.496094 183.625 100.171875 162.144531 C 100.226562 162.078125 100.304688 162.027344 100.371094 161.972656 C 102.652344 160.582031 104.953125 159.296875 107.210938 158.171875 C 122.625 150.367188 139.585938 146.210938 155.996094 142.195312 C 156.8125 142 157.652344 141.855469 158.503906 141.761719 C 163.613281 141.238281 166.933594 142.90625 167.394531 146.222656 C 167.851562 149.554688 164.78125 151.953125 162.417969 153.476562 L 126.496094 176.621094 C 125.839844 177.042969 124.933594 177.617188 123.882812 177.738281 C 123.859375 177.738281 123.648438 177.75 123.621094 177.75 C 122.296875 177.777344 121.191406 177.109375 120.574219 175.886719 C 119.617188 173.984375 119.984375 171.074219 121.402344 169.277344 C 121.925781 168.621094 122.53125 167.980469 123.148438 167.351562 C 124.554688 165.894531 125.878906 164.515625 125.933594 162.824219 C 125.972656 161.921875 125.628906 161.132812 124.921875 160.476562 C 123.332031 158.996094 119.996094 158.539062 117.714844 159.519531 C 115.886719 160.308594 114.3125 161.527344 112.632812 162.824219 C 111.582031 163.640625 110.519531 164.464844 109.375 165.1875 C 110.636719 165.882812 111.699219 166.996094 112.433594 168.414062 C 113.628906 170.734375 113.628906 173.304688 112.449219 175.296875 C 111.371094 177.132812 109.375 178.328125 107.011719 178.578125 C 104.203125 178.851562 101.589844 177.738281 100.1875 175.664062 C 100.082031 175.496094 100.015625 175.296875 100.015625 175.089844 C 95.066406 179.519531 91.414062 185.304688 89.550781 191.679688 C 91.21875 191.429688 92.78125 189.316406 93.488281 187.3125 L 93.84375 186.261719 C 94.722656 183.640625 95.710938 180.648438 98.480469 179.429688 C 99.015625 179.191406 99.582031 179.046875 100.160156 178.984375 C 103.140625 178.679688 105.949219 180.765625 107.445312 182.640625 C 110.375 186.328125 111.121094 191.246094 109.285156 194.851562 C 108.050781 197.292969 105.425781 199.0625 102.589844 199.351562 C 101.894531 199.414062 101.222656 199.390625 100.566406 199.285156 C 100.605469 199.558594 100.605469 199.847656 100.59375 200.148438 C 100.488281 202.328125 99.042969 204.726562 97.085938 205.972656 C 95.773438 206.824219 94.316406 207.375 92.914062 207.914062 C 91.335938 208.503906 89.851562 209.066406 88.621094 210 C 85.558594 212.292969 84.5625 216.414062 83.578125 220.398438 C 83.355469 221.332031 83.132812 222.261719 82.882812 223.167969 C 81.648438 227.585938 78.613281 232.242188 74.453125 233.277344 C 76.199219 235.191406 77.117188 237.839844 76.804688 240.4375 C 76.765625 240.804688 76.527344 241.121094 76.1875 241.265625 C 75.859375 241.410156 75.464844 241.371094 75.160156 241.148438 C 73.730469 240.085938 71.460938 240.570312 69.804688 242.15625 C 69.636719 242.3125 69.425781 242.40625 69.203125 242.433594 "/>
<path style=" stroke:none;fill-rule:nonzero;fill:rgb(100%,100%,100%);fill-opacity:1;" d="M 134.398438 310.785156 C 135.738281 307.191406 136.921875 303.335938 136.238281 299.558594 C 135.054688 293.003906 128.753906 288.714844 122.636719 286.078125 C 116.519531 283.453125 109.757812 281.554688 105.160156 276.726562 C 100.410156 271.71875 97.769531 263.546875 90.957031 262.378906 C 88.171875 261.90625 85.363281 262.824219 82.605469 263.492188 C 79.847656 264.164062 76.777344 264.53125 74.335938 263.085938 C 71.894531 261.65625 70.894531 257.722656 73.140625 255.992188 C 72.0625 255.71875 71 255.441406 69.9375 255.167969 C 70.292969 258.117188 70.738281 261.027344 71.300781 263.902344 C 73.519531 266.589844 76.082031 269.027344 77.996094 271.941406 C 80.546875 275.796875 81.765625 281.1875 79.023438 284.910156 C 81.03125 285.617188 83.027344 286.3125 85.035156 287.007812 C 88.277344 295.324219 92.648438 303.152344 97.007812 310.941406 C 99.398438 315.207031 101.789062 319.46875 104.175781 323.730469 C 109.875 329.1875 116.125 334.039062 122.832031 338.207031 C 123.542969 333.644531 125.984375 328.882812 128.191406 324.6875 C 130.539062 320.203125 132.628906 315.546875 134.398438 310.785156 "/>
<path style=" stroke:none;fill-rule:nonzero;fill:rgb(30.198669%,46.669006%,30.589294%);fill-opacity:1;" d="M 105.003906 323.085938 C 110.257812 328.097656 116.007812 332.609375 122.113281 336.53125 C 123.121094 332.097656 125.5 327.597656 127.269531 324.214844 C 129.59375 319.78125 131.667969 315.140625 133.429688 310.429688 C 134.636719 307.179688 135.882812 303.390625 135.226562 299.742188 C 134.070312 293.355469 127.519531 289.304688 122.230469 287.035156 C 120.980469 286.496094 119.707031 286 118.433594 285.488281 C 113.40625 283.507812 108.222656 281.449219 104.414062 277.433594 C 102.824219 275.757812 101.460938 273.75 100.148438 271.796875 C 97.480469 267.847656 94.960938 264.109375 90.785156 263.402344 C 88.882812 263.074219 86.414062 263.597656 84.101562 264.1875 L 82.855469 264.503906 C 81.726562 264.78125 80.742188 264.949219 79.835938 265.042969 C 77.40625 265.289062 75.4375 264.9375 73.808594 263.980469 C 73.128906 263.585938 72.535156 263.023438 72.0625 262.367188 C 72.128906 262.734375 72.195312 263.085938 72.273438 263.441406 C 72.96875 264.28125 73.71875 265.105469 74.453125 265.933594 C 75.976562 267.636719 77.566406 269.394531 78.863281 271.363281 C 81.136719 274.824219 82.804688 280.109375 80.585938 284.359375 L 85.375 286.039062 C 85.652344 286.128906 85.875 286.351562 85.992188 286.628906 C 89.210938 294.890625 93.632812 302.800781 97.914062 310.429688 Z M 122.9375 339.230469 C 122.714844 339.257812 122.480469 339.207031 122.28125 339.085938 C 115.546875 334.890625 109.207031 329.972656 103.457031 324.476562 C 103.390625 324.410156 103.324219 324.332031 103.269531 324.242188 L 96.117188 311.441406 C 91.875 303.875 87.488281 296.058594 84.234375 287.835938 L 78.679688 285.894531 C 78.378906 285.789062 78.128906 285.539062 78.039062 285.226562 C 77.945312 284.910156 77.996094 284.570312 78.195312 284.308594 C 80.636719 280.976562 79.429688 275.980469 77.132812 272.503906 C 75.921875 270.667969 74.386719 268.964844 72.917969 267.308594 C 72.089844 266.40625 71.277344 265.5 70.5 264.554688 C 70.394531 264.425781 70.316406 264.269531 70.292969 264.097656 C 69.738281 261.34375 69.28125 258.378906 68.914062 255.285156 C 68.859375 254.957031 68.992188 254.617188 69.253906 254.390625 C 69.503906 254.167969 69.859375 254.078125 70.1875 254.167969 L 73.402344 254.996094 C 73.785156 255.085938 74.074219 255.402344 74.152344 255.78125 C 74.230469 256.175781 74.085938 256.570312 73.769531 256.804688 C 72.996094 257.410156 72.890625 258.300781 72.929688 258.941406 C 73.007812 260.253906 73.785156 261.566406 74.859375 262.195312 C 76.605469 263.230469 78.851562 263.351562 82.355469 262.496094 L 83.578125 262.183594 C 86.097656 261.539062 88.867188 260.976562 91.140625 261.355469 C 96.179688 262.222656 99.070312 266.496094 101.867188 270.640625 C 103.125 272.515625 104.441406 274.457031 105.921875 276.019531 C 109.402344 279.691406 114.378906 281.65625 119.195312 283.574219 C 120.496094 284.085938 121.78125 284.59375 123.042969 285.132812 C 128.808594 287.597656 135.949219 292.085938 137.261719 299.375 C 138.011719 303.535156 136.671875 307.636719 135.371094 311.152344 C 133.574219 315.953125 131.472656 320.660156 129.097656 325.171875 C 127.191406 328.820312 124.566406 333.800781 123.859375 338.367188 C 123.804688 338.707031 123.582031 338.996094 123.265625 339.152344 C 123.160156 339.191406 123.042969 339.21875 122.9375 339.230469 "/>
<path style=" stroke:none;fill-rule:nonzero;fill:rgb(100%,100%,100%);fill-opacity:1;" d="M 83.367188 159.703125 C 83.367188 159.703125 77.605469 169.605469 87.28125 182.050781 C 96.285156 182.511719 174.246094 189.421875 210.21875 132.519531 C 212.53125 127.441406 204.691406 119.613281 199.375 120.53125 C 194.070312 121.449219 83.367188 159.703125 83.367188 159.703125 "/>
<path style=" stroke:none;fill-rule:nonzero;fill:rgb(30.198669%,46.669006%,30.589294%);fill-opacity:1;" d="M 101.355469 183.886719 C 96.734375 183.886719 92.386719 183.730469 88.449219 183.496094 L 86.585938 183.402344 L 86.191406 182.890625 C 76.054688 169.867188 81.910156 159.441406 82.171875 159.007812 L 84.5625 160.386719 C 84.351562 160.753906 79.558594 169.449219 88.003906 180.699219 L 88.605469 180.742188 C 120.746094 182.679688 179.261719 178.90625 209.050781 131.769531 C 209.65625 130.433594 209.078125 128.269531 207.4375 126.144531 C 205.257812 123.324219 201.882812 121.488281 199.625 121.894531 L 199.152344 119.167969 C 203 118.496094 207.292969 121.4375 209.628906 124.464844 C 211.941406 127.441406 212.621094 130.589844 211.480469 133.082031 C 184.527344 175.730469 135.175781 183.886719 101.355469 183.886719 "/>
<path style=" stroke:none;fill-rule:nonzero;fill:rgb(100%,100%,100%);fill-opacity:1;" d="M 67.558594 112.242188 L 83.828125 159.703125 C 83.828125 159.703125 163.164062 173.527344 198.691406 120.53125 C 195.921875 109.933594 192.234375 97.488281 192.234375 97.488281 L 67.558594 112.242188 "/>
<path style=" stroke:none;fill-rule:nonzero;fill:rgb(30.198669%,46.669006%,30.589294%);fill-opacity:1;" d="M 106.332031 162.617188 C 92.976562 162.617188 83.851562 161.109375 83.589844 161.054688 L 82.777344 160.925781 L 66.261719 112.6875 L 68.875 111.796875 L 84.863281 158.457031 C 93.214844 159.691406 164.320312 168.492188 197.195312 120.269531 C 194.480469 109.945312 190.933594 98.011719 190.90625 97.882812 L 193.558594 97.09375 C 193.597656 97.226562 197.289062 109.683594 200.03125 120.175781 L 200.191406 120.78125 L 199.835938 121.304688 C 176.152344 156.648438 132.878906 162.617188 106.332031 162.617188 "/>
<path style=" stroke:none;fill-rule:nonzero;fill:rgb(100%,100%,100%);fill-opacity:1;" d="M 226.710938 58.328125 C 226.710938 37.332031 209.683594 20.308594 188.664062 20.308594 C 175.835938 20.308594 164.519531 26.65625 157.625 36.359375 C 155.789062 26.65625 147.765625 18.316406 138.101562 15.757812 C 127.308594 12.898438 115.257812 16.847656 107.460938 24.832031 C 99.660156 32.804688 96.023438 44.375 96.71875 55.507812 C 78.957031 43.285156 52.382812 46.234375 37.746094 62.066406 C 23.105469 77.882812 22.253906 104.582031 35.855469 121.304688 C 41.355469 128.070312 49.207031 133.316406 57.898438 134.117188 C 64.988281 134.761719 72.011719 132.464844 78.511719 129.59375 C 87.160156 125.777344 95.328125 120.886719 102.757812 115.046875 C 105.226562 126.339844 114.261719 135.558594 124.988281 139.875 C 135.714844 144.191406 147.871094 144.007812 159.054688 141.09375 C 168.679688 138.578125 178.09375 133.855469 184.121094 125.933594 C 190.132812 118.027344 192.050781 106.539062 186.96875 98 C 190.210938 97.699219 193.296875 96.84375 196.210938 95.585938 C 213.609375 92.085938 226.710938 76.742188 226.710938 58.328125 "/>
<path style=" stroke:none;fill-rule:nonzero;fill:rgb(30.198669%,46.669006%,30.589294%);fill-opacity:1;" d="M 103.652344 112.609375 L 104.113281 114.761719 C 106.371094 125.054688 114.5625 134.183594 125.5 138.589844 C 130.828125 140.742188 136.761719 141.828125 143.105469 141.828125 C 148.1875 141.828125 153.4375 141.121094 158.703125 139.757812 C 166.199219 137.804688 176.492188 133.671875 183.015625 125.109375 C 189.121094 117.082031 190.25 106.222656 185.773438 98.695312 L 184.65625 96.820312 L 186.851562 96.621094 C 189.777344 96.347656 192.730469 95.574219 195.660156 94.316406 C 212.964844 90.800781 225.332031 75.703125 225.332031 58.316406 C 225.332031 38.117188 208.882812 21.683594 188.664062 21.683594 C 176.820312 21.683594 165.632812 27.46875 158.753906 37.160156 L 156.863281 39.808594 L 156.261719 36.621094 C 154.539062 27.5625 146.9375 19.535156 137.75 17.09375 C 127.886719 14.472656 116.007812 18.050781 108.457031 25.789062 C 101.261719 33.148438 97.390625 44.230469 98.097656 55.417969 L 98.28125 58.261719 L 95.933594 56.636719 C 89 51.875 80.546875 49.34375 71.484375 49.34375 C 58.710938 49.34375 46.789062 54.328125 38.753906 62.996094 C 24.523438 78.394531 23.695312 104.164062 36.929688 120.4375 C 42.71875 127.558594 50.414062 132.046875 58.027344 132.742188 C 63.9375 133.292969 69.820312 131.925781 77.957031 128.335938 C 86.492188 124.570312 94.554688 119.730469 101.917969 113.972656 Z M 143.105469 144.582031 C 136.410156 144.582031 130.132812 143.429688 124.460938 141.148438 C 113.421875 136.714844 104.964844 127.742188 101.945312 117.4375 C 94.867188 122.773438 87.1875 127.285156 79.074219 130.863281 C 73.457031 133.34375 65.722656 136.214844 57.777344 135.496094 C 49.429688 134.734375 41.039062 129.882812 34.777344 122.171875 C 20.714844 104.871094 21.582031 77.488281 36.71875 61.121094 C 45.265625 51.886719 57.9375 46.589844 71.484375 46.589844 C 80.152344 46.589844 88.316406 48.765625 95.25 52.925781 C 95.222656 41.882812 99.320312 31.179688 106.460938 23.863281 C 114.707031 15.429688 127.664062 11.5625 138.46875 14.417969 C 147.816406 16.898438 155.472656 24.28125 158.269531 33.253906 C 165.738281 24.230469 176.898438 18.929688 188.664062 18.929688 C 210.402344 18.929688 228.101562 36.597656 228.101562 58.316406 C 228.101562 77.015625 214.800781 93.253906 196.488281 96.9375 C 194.175781 97.960938 191.667969 98.707031 189.121094 99.113281 C 192.996094 107.441406 191.511719 118.511719 185.222656 126.773438 C 178.210938 135.980469 167.316406 140.375 159.398438 142.433594 C 153.910156 143.863281 148.421875 144.582031 143.105469 144.582031 "/>
<path style=" stroke:none;fill-rule:nonzero;fill:rgb(100%,87.059021%,34.899902%);fill-opacity:1;" d="M 169.007812 90.039062 C 173.066406 85.316406 175.535156 79.191406 175.535156 72.476562 C 175.535156 57.59375 163.453125 45.527344 148.554688 45.527344 C 134.125 45.527344 122.375 56.847656 121.640625 71.074219 C 136.933594 73.03125 147.671875 87.007812 149.472656 97.5 L 151.496094 99.46875 C 157.152344 94.234375 164.414062 90.316406 169.007812 90.039062 "/>
<path style=" stroke:none;fill-rule:nonzero;fill:rgb(30.198669%,46.669006%,30.589294%);fill-opacity:1;" d="M 150.023438 102.785156 C 149.839844 102.785156 149.667969 102.761719 149.484375 102.683594 C 148.933594 102.457031 148.59375 101.894531 148.644531 101.304688 C 149.132812 94.746094 144.445312 85.632812 137.5 79.625 C 130.144531 73.253906 121.152344 70.824219 112.148438 72.804688 C 105.320312 74.300781 100.460938 77.332031 97.703125 81.816406 C 93.621094 88.464844 95.523438 96.085938 95.539062 96.164062 C 95.734375 96.910156 95.289062 97.660156 94.554688 97.855469 C 93.804688 98.050781 93.058594 97.59375 92.875 96.859375 C 92.769531 96.503906 90.65625 88.007812 95.339844 80.375 C 98.503906 75.21875 103.953125 71.769531 111.554688 70.105469 C 121.429688 67.941406 131.289062 70.578125 139.324219 77.527344 C 145.835938 83.179688 150.390625 91.140625 151.285156 97.988281 C 157.574219 91.585938 164.097656 88.425781 170.765625 88.519531 C 181.113281 88.6875 187.769531 96.78125 188.046875 97.121094 C 188.53125 97.722656 188.4375 98.589844 187.835938 99.074219 C 187.246094 99.546875 186.378906 99.457031 185.890625 98.867188 C 185.828125 98.785156 179.734375 91.417969 170.6875 91.285156 C 164.019531 91.179688 157.480469 94.890625 151.074219 102.3125 C 150.796875 102.628906 150.417969 102.785156 150.023438 102.785156 "/>
<path style=" stroke:none;fill-rule:nonzero;fill:rgb(100%,100%,100%);fill-opacity:1;" d="M 155.789062 25.488281 L 153.371094 38.273438 L 161.328125 42.773438 L 164.78125 25.84375 L 155.789062 25.488281 "/>
<path style=" stroke:none;fill-rule:nonzero;fill:rgb(97.24884%,61.959839%,5.488586%);fill-opacity:1;" d="M 153.320312 52.859375 C 152.582031 52.859375 151.980469 52.28125 151.941406 51.546875 C 151.914062 51.207031 150.324219 17.371094 183.976562 11.351562 C 184.75 11.21875 185.457031 11.71875 185.589844 12.480469 C 185.722656 13.226562 185.222656 13.949219 184.472656 14.078125 C 153.253906 19.652344 154.632812 50.105469 154.699219 51.390625 C 154.738281 52.152344 154.160156 52.804688 153.398438 52.847656 C 153.371094 52.847656 153.34375 52.859375 153.320312 52.859375 "/>
<path style=" stroke:none;fill-rule:nonzero;fill:rgb(100%,100%,100%);fill-opacity:1;" d="M 157.796875 57.84375 C 157.441406 57.84375 157.101562 57.710938 156.824219 57.449219 C 150.078125 50.945312 143.828125 54.785156 143.5625 54.957031 C 142.933594 55.363281 142.082031 55.179688 141.660156 54.539062 C 141.253906 53.894531 141.425781 53.054688 142.066406 52.636719 C 142.144531 52.582031 150.378906 47.402344 158.753906 55.457031 C 159.304688 55.992188 159.320312 56.859375 158.78125 57.410156 C 158.519531 57.699219 158.152344 57.84375 157.796875 57.84375 "/>
<path style=" stroke:none;fill-rule:nonzero;fill:rgb(100%,100%,100%);fill-opacity:1;" d="M 170.191406 64.519531 C 170.191406 64.519531 171.554688 67.664062 171.554688 69.554688 C 171.554688 71.441406 170.191406 64.519531 170.191406 64.519531 "/>
<path style=" stroke:none;fill-rule:nonzero;fill:rgb(100%,100%,100%);fill-opacity:1;" d="M 171.554688 70.050781 C 171.28125 70.050781 171.054688 69.828125 171.054688 69.554688 C 171.054688 67.796875 169.742188 64.753906 169.730469 64.714844 C 169.613281 64.464844 169.730469 64.164062 169.992188 64.058594 C 170.242188 63.941406 170.542969 64.058594 170.648438 64.320312 C 170.703125 64.453125 172.066406 67.585938 172.066406 69.554688 C 172.066406 69.828125 171.832031 70.050781 171.554688 70.050781 "/>
<path style=" stroke:none;fill-rule:nonzero;fill:rgb(100%,100%,100%);fill-opacity:1;" d="M 167.667969 87.363281 C 167.550781 87.363281 167.433594 87.324219 167.339844 87.246094 C 167.128906 87.0625 167.105469 86.746094 167.289062 86.539062 C 172.027344 81.003906 171.371094 72.519531 171.371094 72.425781 C 171.34375 72.152344 171.554688 71.914062 171.832031 71.886719 C 171.84375 71.886719 171.855469 71.886719 171.871094 71.886719 C 172.132812 71.886719 172.355469 72.085938 172.371094 72.347656 C 172.394531 72.703125 173.066406 81.332031 168.050781 87.191406 C 167.945312 87.3125 167.8125 87.363281 167.667969 87.363281 "/>
<path style=" stroke:none;fill-rule:nonzero;fill:rgb(100%,100%,100%);fill-opacity:1;" d="M 154.289062 54.800781 C 153.632812 54.800781 153.054688 54.328125 152.9375 53.660156 C 152.398438 50.785156 154.972656 48.964844 156.574219 48.347656 C 157.285156 48.085938 158.097656 48.425781 158.359375 49.148438 C 158.648438 49.855469 158.296875 50.65625 157.585938 50.929688 C 157.535156 50.945312 155.40625 51.835938 155.65625 53.171875 C 155.789062 53.921875 155.289062 54.640625 154.539062 54.773438 C 154.460938 54.785156 154.371094 54.800781 154.289062 54.800781 "/>
<path style=" stroke:none;fill-rule:nonzero;fill:rgb(100%,100%,100%);fill-opacity:1;" d="M 325.113281 272.921875 C 314.9375 272.921875 303.238281 266.574219 293.839844 261.488281 C 290.214844 259.519531 286.789062 257.65625 283.914062 256.414062 C 281.183594 255.21875 278.476562 254 275.773438 252.792969 C 262.878906 246.984375 249.542969 240.964844 233.761719 238.917969 C 232.894531 238.800781 232.265625 238.039062 232.304688 237.171875 C 232.34375 236.292969 233.050781 235.597656 233.917969 235.574219 C 235.574219 235.507812 237.09375 235.480469 238.5 235.480469 C 246.484375 235.480469 250.921875 236.398438 256.066406 237.472656 C 258.71875 238.023438 261.726562 238.640625 265.597656 239.230469 C 267.265625 239.46875 269.929688 240.398438 273.015625 241.472656 C 276.996094 242.863281 281.945312 244.582031 284.386719 244.582031 C 284.582031 244.582031 284.765625 244.582031 284.925781 244.542969 C 289.492188 243.820312 293.15625 242.050781 297.027344 240.203125 C 301.730469 237.933594 306.585938 235.597656 312.890625 235.429688 C 312.902344 235.429688 312.914062 235.429688 312.929688 235.429688 C 313.625 235.429688 314.253906 235.863281 314.503906 236.503906 C 314.753906 237.171875 314.570312 237.921875 314.019531 238.378906 C 306.652344 244.660156 304.800781 247.074219 304.433594 247.992188 C 305.417969 248.347656 308.242188 248.371094 310.550781 248.398438 C 315.894531 248.453125 323.234375 248.53125 329.890625 251.257812 C 336.441406 253.933594 340.671875 258.511719 340.644531 262.890625 C 340.628906 265.410156 339.238281 268.949219 332.699219 271.558594 C 330.402344 272.464844 327.855469 272.921875 325.113281 272.921875 "/>
<path style=" stroke:none;fill-rule:nonzero;fill:rgb(43.919373%,73.329163%,16.859436%);fill-opacity:1;" d="M 312.929688 233.75 C 312.902344 233.75 312.863281 233.75 312.835938 233.75 C 306.179688 233.933594 301.152344 236.347656 296.292969 238.679688 C 292.527344 240.492188 288.980469 242.195312 284.699219 242.878906 C 284.542969 242.917969 284.476562 242.917969 284.386719 242.917969 C 282.234375 242.917969 277.21875 241.160156 273.566406 239.886719 C 270.402344 238.785156 267.671875 237.828125 265.847656 237.566406 C 262.015625 236.988281 259.035156 236.371094 256.40625 235.835938 C 251.167969 234.746094 246.652344 233.800781 238.488281 233.800781 C 237.070312 233.800781 235.53125 233.828125 233.867188 233.894531 C 232.105469 233.960938 230.703125 235.351562 230.621094 237.09375 C 230.542969 238.839844 231.816406 240.347656 233.550781 240.570312 C 249.082031 242.601562 262.304688 248.554688 275.089844 254.328125 C 277.808594 255.546875 280.511719 256.765625 283.230469 257.945312 C 286.039062 259.167969 289.441406 261.015625 293.039062 262.957031 C 302.609375 268.148438 314.515625 274.601562 325.113281 274.601562 C 328.066406 274.601562 330.835938 274.105469 333.316406 273.105469 C 340.734375 270.15625 342.3125 265.921875 342.324219 262.890625 C 342.351562 257.828125 337.730469 252.648438 330.535156 249.710938 C 323.5625 246.851562 316.054688 246.773438 310.566406 246.71875 C 309.59375 246.707031 308.503906 246.695312 307.53125 246.65625 C 308.792969 245.289062 311.0625 243.113281 315.109375 239.664062 C 316.199219 238.734375 316.578125 237.226562 316.066406 235.902344 C 315.566406 234.601562 314.320312 233.75 312.929688 233.75 Z M 312.929688 237.105469 C 289.152344 257.394531 311.90625 245.710938 329.261719 252.820312 C 338.347656 256.53125 344.253906 265.148438 332.070312 270 C 329.890625 270.863281 327.542969 271.246094 325.113281 271.246094 C 311.550781 271.246094 295.035156 259.414062 284.570312 254.863281 C 268.683594 247.964844 253.308594 239.769531 233.984375 237.25 C 235.613281 237.1875 237.109375 237.160156 238.488281 237.160156 C 250.382812 237.160156 253.914062 239.179688 265.347656 240.882812 C 269.078125 241.433594 279.804688 246.273438 284.386719 246.273438 C 284.699219 246.273438 284.988281 246.25 285.238281 246.195312 C 295.742188 244.515625 302.082031 237.410156 312.929688 237.105469 "/>
<path style=" stroke:none;fill-rule:nonzero;fill:rgb(100%,100%,100%);fill-opacity:1;" d="M 343.769531 222.695312 C 343.769531 222.535156 343.769531 222.367188 343.769531 222.210938 C 343.769531 186.195312 314.554688 157.015625 278.515625 157.015625 C 242.476562 157.015625 213.253906 186.195312 213.253906 222.210938 C 213.253906 222.367188 213.265625 222.535156 213.265625 222.695312 L 343.769531 222.695312 "/>
<path style=" stroke:none;fill-rule:nonzero;fill:rgb(43.919373%,73.329163%,16.859436%);fill-opacity:1;" d="M 214.75 221.210938 L 342.273438 221.210938 C 341.65625 186.445312 313.28125 158.496094 278.515625 158.496094 C 243.671875 158.496094 215.273438 186.535156 214.75 221.210938 Z M 343.769531 224.175781 L 211.78125 224.175781 L 211.769531 222.210938 C 211.769531 185.449219 241.703125 155.535156 278.515625 155.535156 C 315.316406 155.535156 345.253906 185.449219 345.253906 222.210938 L 345.253906 223.691406 L 343.769531 224.175781 "/>
<path style=" stroke:none;fill-rule:nonzero;fill:rgb(100%,100%,100%);fill-opacity:1;" d="M 344.898438 237.25 L 211.574219 237.25 C 207.253906 237.25 203.734375 233.722656 203.734375 229.410156 C 203.734375 225.105469 207.253906 221.578125 211.574219 221.578125 L 344.898438 221.578125 C 349.203125 221.578125 352.734375 225.105469 352.734375 229.410156 C 352.734375 233.722656 349.203125 237.25 344.898438 237.25 "/>
<g clip-path="url(#clip1)" clip-rule="nonzero">
<path style=" stroke:none;fill-rule:nonzero;fill:rgb(43.919373%,73.329163%,16.859436%);fill-opacity:1;" d="M 211.574219 223.257812 C 208.171875 223.257812 205.414062 226.027344 205.414062 229.410156 C 205.414062 232.804688 208.171875 235.574219 211.574219 235.574219 L 344.898438 235.574219 C 348.285156 235.574219 351.054688 232.804688 351.054688 229.410156 C 351.054688 226.027344 348.285156 223.257812 344.898438 223.257812 Z M 344.898438 238.929688 L 211.574219 238.929688 C 206.320312 238.929688 202.054688 234.65625 202.054688 229.410156 C 202.054688 224.164062 206.320312 219.902344 211.574219 219.902344 L 344.898438 219.902344 C 350.148438 219.902344 354.417969 224.164062 354.417969 229.410156 C 354.417969 234.65625 350.148438 238.929688 344.898438 238.929688 "/>
</g>
<path style=" stroke:none;fill-rule:nonzero;fill:rgb(43.919373%,73.329163%,16.859436%);fill-opacity:1;" d="M 279.359375 134.289062 C 274.105469 134.289062 269.824219 138.550781 269.824219 143.796875 C 269.824219 149.042969 274.105469 153.316406 279.359375 153.316406 C 284.609375 153.316406 288.875 149.042969 288.875 143.796875 C 288.875 138.550781 284.609375 134.289062 279.359375 134.289062 Z M 279.359375 156.675781 C 272.253906 156.675781 266.464844 150.890625 266.464844 143.796875 C 266.464844 136.703125 272.253906 130.929688 279.359375 130.929688 C 286.460938 130.929688 292.238281 136.703125 292.238281 143.796875 C 292.238281 150.890625 286.460938 156.675781 279.359375 156.675781 "/>
<path style=" stroke:none;fill-rule:nonzero;fill:rgb(43.919373%,73.329163%,16.859436%);fill-opacity:1;" d="M 308.6875 288.542969 C 307.609375 288.542969 306.769531 288.1875 306.152344 287.796875 C 301.019531 284.453125 301.980469 270.339844 302.226562 267.546875 C 302.308594 266.617188 303.082031 265.945312 304.054688 266.023438 C 304.972656 266.105469 305.65625 266.917969 305.578125 267.835938 C 305.039062 273.960938 305.433594 283.324219 307.980469 284.988281 C 308.175781 285.105469 308.78125 285.5 310.277344 284.675781 C 316.25 281.394531 315.253906 260.871094 313.230469 248.714844 C 313.074219 247.796875 313.691406 246.945312 314.609375 246.785156 C 315.515625 246.617188 316.394531 247.246094 316.539062 248.164062 C 317.117188 251.625 321.910156 282.117188 311.890625 287.625 C 310.65625 288.292969 309.59375 288.542969 308.6875 288.542969 "/>
<path style=" stroke:none;fill-rule:nonzero;fill:rgb(43.919373%,73.329163%,16.859436%);fill-opacity:1;" d="M 315.292969 247.820312 C 315.292969 247.820312 337.875 248.699219 342.089844 264.125 C 341.8125 272.308594 317.207031 286.71875 310.984375 287.769531 C 316.328125 281.34375 317.5625 263.207031 315.292969 247.820312 "/>
<path style=" stroke:none;fill-rule:nonzero;fill:rgb(100%,87.059021%,34.899902%);fill-opacity:1;" d="M 319.886719 142.066406 C 318.429688 142.066406 317.089844 142.929688 316.5 144.269531 C 316.171875 145.027344 315.84375 147.574219 319.886719 154.90625 C 322.960938 154.105469 329.15625 152.347656 330.074219 150.273438 C 330.902344 148.414062 330.0625 146.234375 328.199219 145.410156 C 327.132812 144.9375 325.875 145.015625 324.847656 145.59375 L 323.761719 146.234375 L 323.484375 144.988281 C 323.234375 143.824219 322.460938 142.863281 321.382812 142.394531 C 320.898438 142.183594 320.398438 142.066406 319.886719 142.066406 Z M 318.96875 157.054688 L 318.625 156.4375 C 315.027344 150.066406 313.78125 145.84375 314.804688 143.519531 C 316.015625 140.804688 319.402344 139.496094 322.132812 140.703125 C 323.390625 141.265625 324.390625 142.289062 324.941406 143.535156 C 326.253906 143.101562 327.683594 143.152344 328.945312 143.71875 C 331.742188 144.949219 333.015625 148.230469 331.769531 151.035156 C 330.585938 153.710938 325.242188 155.429688 319.664062 156.871094 L 318.96875 157.054688 "/>
<path style=" stroke:none;fill-rule:nonzero;fill:rgb(100%,87.059021%,34.899902%);fill-opacity:1;" d="M 247.808594 125.394531 C 247.324219 125.394531 246.851562 125.476562 246.378906 125.632812 C 244.027344 126.417969 242.753906 128.988281 243.554688 131.351562 C 243.871094 132.308594 245.695312 134.863281 255.398438 138.117188 C 257.394531 135.007812 261.621094 128.152344 260.726562 125.539062 C 259.953125 123.246094 257.339844 121.933594 255.003906 122.707031 C 253.636719 123.179688 252.601562 124.242188 252.152344 125.644531 L 251.695312 127.128906 L 250.421875 126.234375 C 249.648438 125.683594 248.742188 125.394531 247.808594 125.394531 Z M 256.355469 140.804688 L 255.527344 140.53125 C 247.019531 137.777344 242.414062 135.007812 241.414062 132.070312 C 240.21875 128.53125 242.125 124.6875 245.65625 123.496094 C 247.257812 122.957031 249.03125 123.046875 250.539062 123.71875 C 251.351562 122.25 252.679688 121.121094 254.28125 120.570312 C 257.761719 119.402344 261.699219 121.371094 262.867188 124.820312 C 264.023438 128.214844 260.636719 134.15625 256.816406 140.070312 L 256.355469 140.804688 "/>
<path style=" stroke:none;fill-rule:nonzero;fill:rgb(100%,100%,100%);fill-opacity:1;" d="M 234.785156 165.683594 C 233.472656 167.128906 233.023438 169.054688 233.394531 170.824219 C 231.582031 170.640625 229.703125 171.257812 228.390625 172.714844 C 226.199219 175.113281 226.382812 178.839844 228.796875 181.027344 C 231.199219 183.21875 238.054688 182.667969 244.945312 181.316406 C 245.394531 174.707031 245.523438 167.46875 243.109375 165.277344 C 240.707031 163.101562 236.976562 163.273438 234.785156 165.683594 "/>
<path style=" stroke:none;fill-rule:nonzero;fill:rgb(100%,87.059021%,34.899902%);fill-opacity:1;" d="M 232.738281 171.980469 C 231.398438 171.980469 230.164062 172.515625 229.269531 173.5 C 228.417969 174.433594 227.984375 175.640625 228.050781 176.898438 C 228.101562 178.15625 228.652344 179.3125 229.585938 180.148438 C 230.175781 180.6875 231.566406 181.316406 234.890625 181.316406 C 237.277344 181.316406 240.285156 180.988281 243.832031 180.332031 C 244.078125 176.292969 244.449219 168.097656 242.320312 166.15625 C 240.46875 164.476562 237.34375 164.621094 235.652344 166.472656 C 234.640625 167.585938 234.234375 169.09375 234.546875 170.601562 L 234.863281 172.175781 L 233.261719 172.007812 C 233.089844 171.980469 232.921875 171.980469 232.738281 171.980469 Z M 234.890625 183.679688 C 231.566406 183.679688 229.324219 183.085938 227.996094 181.894531 C 226.605469 180.636719 225.777344 178.890625 225.699219 177.003906 C 225.59375 175.113281 226.25 173.316406 227.523438 171.914062 C 228.707031 170.617188 230.332031 169.816406 232.09375 169.644531 C 232.078125 167.902344 232.722656 166.195312 233.90625 164.898438 C 236.4375 162.117188 241.125 161.894531 243.910156 164.414062 C 246.679688 166.929688 246.613281 174.066406 246.128906 181.394531 L 246.0625 182.300781 L 245.183594 182.472656 C 241.085938 183.273438 237.632812 183.679688 234.890625 183.679688 "/>
<path style=" stroke:none;fill-rule:nonzero;fill:rgb(43.919373%,73.329163%,16.859436%);fill-opacity:1;" d="M 334.539062 216.203125 C 334.289062 216.203125 334.066406 216.03125 334.027344 215.769531 C 331.296875 197.25 320.070312 185.476562 311.128906 178.863281 C 310.90625 178.695312 310.867188 178.378906 311.023438 178.15625 C 311.195312 177.933594 311.511719 177.882812 311.734375 178.050781 C 320.832031 184.78125 332.242188 196.765625 335.023438 215.625 C 335.078125 215.914062 334.878906 216.164062 334.605469 216.203125 C 334.578125 216.203125 334.550781 216.203125 334.539062 216.203125 "/>
<path style=" stroke:none;fill-rule:nonzero;fill:rgb(43.919373%,73.329163%,16.859436%);fill-opacity:1;" d="M 303.726562 173.984375 C 303.644531 173.984375 303.566406 173.960938 303.488281 173.921875 C 297.214844 170.40625 292.421875 168.925781 292.367188 168.898438 C 292.105469 168.820312 291.949219 168.542969 292.039062 168.269531 C 292.117188 168.007812 292.40625 167.863281 292.671875 167.941406 C 292.722656 167.953125 297.605469 169.460938 303.972656 173.042969 C 304.222656 173.171875 304.300781 173.488281 304.171875 173.722656 C 304.078125 173.894531 303.910156 173.984375 303.726562 173.984375 "/>
<path style=" stroke:none;fill-rule:nonzero;fill:rgb(43.919373%,73.329163%,16.859436%);fill-opacity:1;" d="M 227.539062 232.988281 L 212.414062 232.988281 C 212.136719 232.988281 211.902344 232.765625 211.902344 232.492188 C 211.902344 232.214844 212.136719 231.980469 212.414062 231.980469 L 227.539062 231.980469 C 227.8125 231.980469 228.035156 232.214844 228.035156 232.492188 C 228.035156 232.765625 227.8125 232.988281 227.539062 232.988281 "/>
<path style=" stroke:none;fill-rule:nonzero;fill:rgb(43.919373%,73.329163%,16.859436%);fill-opacity:1;" d="M 276.691406 232.988281 L 233.417969 232.988281 C 233.144531 232.988281 232.90625 232.765625 232.90625 232.492188 C 232.90625 232.214844 233.144531 231.980469 233.417969 231.980469 L 276.691406 231.980469 C 276.96875 231.980469 277.191406 232.214844 277.191406 232.492188 C 277.191406 232.765625 276.96875 232.988281 276.691406 232.988281 "/>
<path style=" stroke:none;fill-rule:nonzero;fill:rgb(43.919373%,73.329163%,16.859436%);fill-opacity:1;" d="M 39.820312 112.164062 C 39.648438 112.164062 39.476562 112.085938 39.386719 111.914062 C 37.035156 107.953125 35.355469 103.703125 34.382812 99.296875 C 34.015625 97.632812 33.753906 95.914062 33.59375 94.195312 C 33.410156 92.175781 33.386719 90.222656 33.515625 88.375 C 33.53125 88.109375 33.753906 87.902344 34.015625 87.902344 C 34.027344 87.902344 34.042969 87.902344 34.054688 87.902344 C 34.332031 87.925781 34.539062 88.164062 34.527344 88.4375 C 34.398438 90.234375 34.421875 92.136719 34.59375 94.105469 C 34.75 95.785156 35.011719 97.460938 35.367188 99.089844 C 36.3125 103.390625 37.953125 107.519531 40.253906 111.402344 C 40.394531 111.652344 40.304688 111.953125 40.066406 112.097656 C 39.988281 112.136719 39.898438 112.164062 39.820312 112.164062 "/>
<path style=" stroke:none;fill-rule:nonzero;fill:rgb(43.919373%,73.329163%,16.859436%);fill-opacity:1;" d="M 64.003906 125.566406 C 55.730469 125.566406 48.078125 121.945312 43.824219 115.953125 C 43.652344 115.71875 43.71875 115.402344 43.941406 115.246094 C 44.164062 115.089844 44.480469 115.140625 44.636719 115.363281 C 48.878906 121.34375 56.648438 124.871094 65.027344 124.542969 C 72.039062 124.28125 79.519531 121.410156 86.648438 116.242188 C 86.859375 116.085938 87.1875 116.125 87.347656 116.347656 C 87.503906 116.582031 87.464844 116.898438 87.242188 117.054688 C 79.953125 122.339844 72.285156 125.277344 65.066406 125.554688 C 64.710938 125.566406 64.355469 125.566406 64.003906 125.566406 "/>
<path style=" stroke:none;fill-rule:nonzero;fill:rgb(43.919373%,73.329163%,16.859436%);fill-opacity:1;" d="M 143.460938 134.722656 C 142.433594 134.722656 141.410156 134.695312 140.386719 134.628906 C 140.109375 134.617188 139.902344 134.367188 139.925781 134.089844 C 139.941406 133.828125 140.164062 133.621094 140.425781 133.621094 C 140.425781 133.621094 140.441406 133.621094 140.453125 133.621094 C 149.789062 134.234375 159.476562 132.03125 167.683594 127.496094 C 173.117188 124.476562 176.558594 121.082031 178.199219 117.082031 C 178.289062 116.832031 178.59375 116.703125 178.855469 116.804688 C 179.105469 116.910156 179.234375 117.210938 179.117188 117.460938 C 177.398438 121.683594 173.8125 125.253906 168.15625 128.375 C 160.683594 132.503906 152.019531 134.722656 143.460938 134.722656 "/>
<path style=" stroke:none;fill-rule:nonzero;fill:rgb(43.919373%,73.329163%,16.859436%);fill-opacity:1;" d="M 180.773438 109.894531 C 180.496094 109.894531 180.273438 109.660156 180.273438 109.382812 C 180.285156 108.476562 180.234375 107.558594 180.128906 106.640625 C 179.917969 104.832031 179.089844 100.453125 175.71875 98.734375 C 175.480469 98.617188 175.375 98.300781 175.507812 98.066406 C 175.636719 97.816406 175.925781 97.722656 176.175781 97.84375 C 178.855469 99.191406 180.667969 102.367188 181.140625 106.539062 C 181.230469 107.480469 181.296875 108.453125 181.285156 109.394531 C 181.269531 109.671875 181.046875 109.894531 180.773438 109.894531 "/>
<path style=" stroke:none;fill-rule:nonzero;fill:rgb(43.919373%,73.329163%,16.859436%);fill-opacity:1;" d="M 129.1875 81.304688 C 129.109375 81.304688 129.03125 81.292969 128.953125 81.253906 C 125.050781 79.101562 120.917969 77.109375 117.003906 78.222656 C 116.730469 78.300781 116.464844 78.144531 116.375 77.882812 C 116.296875 77.621094 116.453125 77.332031 116.730469 77.253906 C 121.007812 76.03125 125.355469 78.117188 129.4375 80.359375 C 129.671875 80.503906 129.765625 80.804688 129.632812 81.042969 C 129.542969 81.214844 129.371094 81.304688 129.1875 81.304688 "/>
<path style=" stroke:none;fill-rule:nonzero;fill:rgb(43.919373%,73.329163%,16.859436%);fill-opacity:1;" d="M 215.167969 43.875 C 214.960938 43.875 214.75 43.730469 214.683594 43.519531 C 213.371094 39.167969 210.15625 35.378906 206.085938 33.355469 C 205.820312 33.238281 205.730469 32.9375 205.847656 32.6875 C 205.964844 32.4375 206.269531 32.335938 206.53125 32.464844 C 210.851562 34.589844 214.265625 38.617188 215.65625 43.234375 C 215.734375 43.496094 215.589844 43.769531 215.3125 43.847656 C 215.261719 43.863281 215.222656 43.875 215.167969 43.875 "/>
<path style=" stroke:none;fill-rule:nonzero;fill:rgb(43.919373%,73.329163%,16.859436%);fill-opacity:1;" d="M 208.328125 84.570312 C 208.183594 84.570312 208.054688 84.519531 207.949219 84.398438 C 207.765625 84.175781 207.792969 83.863281 208.015625 83.691406 C 212.964844 79.507812 216.546875 73.75 218.125 67.457031 C 219.671875 61.171875 219.199219 54.394531 216.757812 48.386719 C 216.652344 48.136719 216.785156 47.847656 217.035156 47.746094 C 217.308594 47.640625 217.585938 47.757812 217.691406 48.019531 C 220.210938 54.222656 220.710938 61.214844 219.09375 67.703125 C 217.480469 74.195312 213.777344 80.152344 208.65625 84.453125 C 208.566406 84.53125 208.449219 84.570312 208.328125 84.570312 "/>
<path style=" stroke:none;fill-rule:nonzero;fill:rgb(43.919373%,73.329163%,16.859436%);fill-opacity:1;" d="M 104.386719 47.496094 C 104.386719 47.496094 104.375 47.496094 104.359375 47.496094 C 104.085938 47.46875 103.875 47.234375 103.886719 46.957031 C 104.480469 37.527344 109.941406 28.742188 118.121094 24.019531 C 118.355469 23.875 118.671875 23.96875 118.816406 24.203125 C 118.949219 24.4375 118.867188 24.753906 118.632812 24.886719 C 110.847656 29.382812 105.464844 38.066406 104.898438 47.023438 C 104.886719 47.285156 104.664062 47.496094 104.386719 47.496094 "/>
<path style=" stroke:none;fill-rule:nonzero;fill:rgb(43.919373%,73.329163%,16.859436%);fill-opacity:1;" d="M 121.640625 22.839844 C 121.46875 22.839844 121.3125 22.746094 121.207031 22.589844 C 121.074219 22.355469 121.140625 22.039062 121.390625 21.910156 C 123.070312 20.910156 125 20.308594 126.957031 20.191406 C 126.96875 20.191406 126.980469 20.191406 126.980469 20.191406 C 127.246094 20.191406 127.46875 20.386719 127.480469 20.648438 C 127.507812 20.9375 127.296875 21.171875 127.023438 21.1875 C 125.222656 21.304688 123.449219 21.855469 121.902344 22.773438 C 121.824219 22.8125 121.730469 22.839844 121.640625 22.839844 "/>
<path style=" stroke:none;fill-rule:nonzero;fill:rgb(43.919373%,73.329163%,16.859436%);fill-opacity:1;" d="M 88.199219 174.722656 C 88.027344 174.722656 87.859375 174.628906 87.765625 174.457031 C 85.980469 171.351562 84.96875 167.824219 84.8125 164.242188 C 84.796875 163.964844 85.023438 163.730469 85.296875 163.71875 C 85.585938 163.769531 85.808594 163.925781 85.824219 164.203125 C 85.96875 167.625 86.9375 170.996094 88.632812 173.960938 C 88.777344 174.195312 88.699219 174.511719 88.449219 174.65625 C 88.371094 174.695312 88.292969 174.722656 88.199219 174.722656 "/>
<path style=" stroke:none;fill-rule:nonzero;fill:rgb(43.919373%,73.329163%,16.859436%);fill-opacity:1;" d="M 89.894531 169.433594 C 89.667969 169.433594 89.472656 169.292969 89.40625 169.082031 L 88.042969 164.398438 C 87.949219 164.125 88.105469 163.847656 88.371094 163.769531 C 88.644531 163.703125 88.921875 163.847656 89 164.109375 L 90.378906 168.792969 C 90.457031 169.054688 90.300781 169.34375 90.039062 169.421875 C 89.984375 169.433594 89.945312 169.433594 89.894531 169.433594 "/>
<path style=" stroke:none;fill-rule:nonzero;fill:rgb(43.919373%,73.329163%,16.859436%);fill-opacity:1;" d="M 93.921875 166.707031 C 93.792969 166.707031 93.660156 166.65625 93.554688 166.5625 C 92.953125 165.945312 92.53125 165.1875 92.308594 164.359375 C 92.230469 164.097656 92.386719 163.824219 92.664062 163.742188 C 92.925781 163.679688 93.203125 163.835938 93.28125 164.097656 C 93.449219 164.765625 93.792969 165.371094 94.277344 165.84375 C 94.476562 166.050781 94.460938 166.367188 94.265625 166.5625 C 94.171875 166.65625 94.042969 166.707031 93.921875 166.707031 "/>
<path style=" stroke:none;fill-rule:nonzero;fill:rgb(43.919373%,73.329163%,16.859436%);fill-opacity:1;" d="M 285.644531 143.191406 C 285.398438 143.191406 285.171875 143.007812 285.148438 142.746094 C 284.820312 140.148438 282.71875 137.816406 280.171875 137.199219 C 279.894531 137.132812 279.726562 136.859375 279.789062 136.597656 C 279.871094 136.320312 280.144531 136.164062 280.40625 136.214844 C 283.402344 136.9375 285.765625 139.574219 286.144531 142.628906 C 286.183594 142.90625 285.988281 143.152344 285.710938 143.191406 C 285.6875 143.191406 285.660156 143.191406 285.644531 143.191406 "/>
<path style=" stroke:none;fill-rule:nonzero;fill:rgb(100%,87.059021%,34.899902%);fill-opacity:1;" d="M 328.078125 150.378906 C 327.960938 150.378906 327.855469 150.339844 327.765625 150.273438 C 327.542969 150.105469 327.5 149.789062 327.671875 149.566406 C 327.988281 149.148438 328.105469 148.558594 327.949219 148.058594 C 327.804688 147.546875 327.398438 147.128906 326.882812 146.957031 C 326.621094 146.863281 326.492188 146.578125 326.582031 146.3125 C 326.675781 146.050781 326.976562 145.90625 327.226562 146 C 328.027344 146.273438 328.671875 146.957031 328.917969 147.769531 C 329.15625 148.582031 328.984375 149.5 328.472656 150.183594 C 328.382812 150.3125 328.222656 150.378906 328.078125 150.378906 "/>
<path style=" stroke:none;fill-rule:nonzero;fill:rgb(100%,87.059021%,34.899902%);fill-opacity:1;" d="M 258.246094 129.171875 C 258.128906 129.171875 258.023438 129.132812 257.929688 129.070312 C 257.707031 128.886719 257.679688 128.570312 257.851562 128.359375 C 258.484375 127.585938 258.402344 126.273438 257.65625 125.59375 C 256.933594 124.925781 255.605469 124.9375 254.898438 125.632812 C 254.6875 125.828125 254.375 125.828125 254.175781 125.621094 C 253.992188 125.421875 253.992188 125.109375 254.1875 124.910156 C 255.304688 123.835938 257.207031 123.808594 258.339844 124.859375 C 259.480469 125.90625 259.613281 127.796875 258.640625 128.988281 C 258.535156 129.109375 258.390625 129.171875 258.246094 129.171875 "/>
<path style=" stroke:none;fill-rule:nonzero;fill:rgb(100%,87.059021%,34.899902%);fill-opacity:1;" d="M 236.519531 171.953125 C 236.347656 171.953125 236.164062 171.847656 236.070312 171.679688 C 235.441406 170.417969 235.625 168.78125 236.542969 167.703125 C 237.449219 166.617188 239.023438 166.15625 240.390625 166.5625 C 240.652344 166.640625 240.8125 166.917969 240.71875 167.191406 C 240.640625 167.457031 240.363281 167.613281 240.089844 167.519531 C 239.117188 167.21875 237.976562 167.558594 237.320312 168.347656 C 236.648438 169.132812 236.519531 170.3125 236.976562 171.230469 C 237.09375 171.46875 237.003906 171.769531 236.753906 171.902344 C 236.675781 171.941406 236.597656 171.953125 236.519531 171.953125 "/>
</g>
</svg>
