<?xml version="1.0" encoding="UTF-8"?>
<svg xmlns="http://www.w3.org/2000/svg" xmlns:xlink="http://www.w3.org/1999/xlink" width="375pt" height="374.999991pt" viewBox="0 0 375 374.999991" version="1.2">
<defs>
<clipPath id="clip1">
  <path d="M 60 59.296875 L 317 59.296875 L 317 315.796875 L 60 315.796875 Z M 60 59.296875 "/>
</clipPath>
</defs>
<g id="surface1">
<path style=" stroke:none;fill-rule:nonzero;fill:rgb(30.198669%,46.669006%,30.589294%);fill-opacity:1;" d="M 374.835938 77.257812 C 374.976562 76.148438 374.183594 75.132812 373.074219 74.992188 C 371.960938 74.851562 370.945312 75.644531 370.804688 76.761719 L 363.601562 134.855469 C 361.992188 132.1875 359.746094 129.921875 357.046875 128.296875 L 363.554688 75.859375 C 363.6875 74.746094 362.898438 73.726562 361.785156 73.589844 C 360.671875 73.453125 359.660156 74.242188 359.519531 75.355469 L 353.171875 126.535156 C 352.027344 126.15625 350.828125 125.882812 349.585938 125.730469 C 348.347656 125.578125 347.121094 125.546875 345.914062 125.632812 L 352.265625 74.453125 C 352.402344 73.34375 351.613281 72.328125 350.5 72.191406 C 349.386719 72.050781 348.371094 72.84375 348.234375 73.957031 L 341.726562 126.398438 C 338.710938 127.308594 335.980469 128.953125 333.769531 131.152344 L 340.980469 73.054688 C 341.117188 71.941406 340.324219 70.925781 339.210938 70.785156 C 338.101562 70.652344 337.085938 71.441406 336.945312 72.554688 L 328.3125 142.15625 L 328.3125 142.191406 L 328.289062 142.328125 C 327.300781 150.3125 331.390625 157.753906 338.023438 161.414062 C 332.507812 196.035156 324.984375 246.773438 319.761719 278.96875 C 318.949219 283.757812 323.230469 288.25 329.324219 289.007812 C 335.421875 289.765625 340.675781 286.453125 341.054688 281.617188 C 343.863281 249.117188 348.96875 198.078125 352.078125 163.15625 C 359.40625 161.230469 365.191406 155.019531 366.179688 147.035156 L 366.191406 146.894531 L 366.199219 146.859375 L 374.835938 77.257812 "/>
<g clip-path="url(#clip1)" clip-rule="nonzero">
<path style=" stroke:none;fill-rule:nonzero;fill:rgb(100%,87.059021%,34.899902%);fill-opacity:1;" d="M 316.101562 187.601562 C 316.101562 258.335938 258.777344 315.683594 188.0625 315.683594 C 117.351562 315.683594 60.03125 258.335938 60.03125 187.601562 C 60.03125 116.863281 117.351562 59.515625 188.0625 59.515625 C 258.777344 59.515625 316.101562 116.863281 316.101562 187.601562 "/>
</g>
<path style=" stroke:none;fill-rule:nonzero;fill:rgb(100%,100%,100%);fill-opacity:1;" d="M 259.347656 187.601562 C 259.347656 226.984375 227.433594 258.910156 188.0625 258.910156 C 148.695312 258.910156 116.78125 226.984375 116.78125 187.601562 C 116.78125 148.21875 148.695312 116.292969 188.0625 116.292969 C 227.433594 116.292969 259.347656 148.21875 259.347656 187.601562 "/>
<path style=" stroke:none;fill-rule:nonzero;fill:rgb(79.219055%,88.62915%,39.608765%);fill-opacity:1;" d="M 193.863281 83.757812 C 193.863281 83.757812 146.636719 175.015625 146.636719 201.109375 C 146.636719 225.304688 164.824219 249.605469 188.261719 253.015625 C 188.726562 251.117188 189.394531 249.238281 189.746094 247.878906 C 191.429688 241.398438 193.097656 234.894531 194.371094 228.382812 C 196.941406 215.21875 197.738281 201.90625 193.964844 189.820312 C 191.855469 183.082031 188.019531 175.90625 182.226562 171.824219 C 202.988281 186.460938 203.710938 215.847656 200.265625 241.140625 C 199.820312 244.433594 199.191406 247.722656 198.230469 250.984375 C 198.035156 251.652344 197.855469 252.429688 197.664062 253.230469 C 221.964844 250.839844 241.09375 225.921875 241.09375 201.109375 C 241.09375 175.015625 193.863281 83.757812 193.863281 83.757812 "/>
<path style=" stroke:none;fill-rule:nonzero;fill:rgb(30.198669%,46.669006%,30.589294%);fill-opacity:1;" d="M 319.664062 192.746094 C 319.664062 192.746094 235.050781 203.390625 217.214844 215.671875 C 200.675781 227.054688 192.617188 250.933594 201.324219 268.574219 C 202.839844 268 204.4375 267.574219 205.53125 267.175781 C 210.753906 265.277344 215.980469 263.355469 221.03125 261.160156 C 231.242188 256.722656 240.71875 251.007812 247.207031 242.730469 C 250.824219 238.121094 253.917969 232.117188 253.984375 226.234375 C 253.75 247.328125 234 261.648438 215.089844 271.199219 C 212.628906 272.441406 210.085938 273.5625 207.402344 274.4375 C 206.851562 274.621094 206.238281 274.859375 205.601562 275.105469 C 218.671875 290.609375 244.707031 291.964844 261.671875 280.285156 C 279.507812 268.003906 319.664062 192.746094 319.664062 192.746094 "/>
<path style=" stroke:none;fill-rule:nonzero;fill:rgb(30.198669%,46.669006%,30.589294%);fill-opacity:1;" d="M 56.46875 208.660156 C 56.46875 208.660156 141.480469 201.96875 161.429688 210.386719 C 179.933594 218.195312 192.644531 239.949219 187.6875 258.984375 C 186.089844 258.726562 184.4375 258.632812 183.28125 258.46875 C 177.785156 257.664062 172.273438 256.839844 166.886719 255.710938 C 155.992188 253.429688 145.550781 249.75 137.53125 242.960938 C 133.054688 239.175781 128.8125 233.921875 127.554688 228.171875 C 132.050781 248.78125 154.285156 258.816406 174.734375 264.339844 C 177.398438 265.058594 180.113281 265.644531 182.917969 265.960938 C 183.496094 266.023438 184.144531 266.136719 184.820312 266.25 C 175.148438 284.074219 149.929688 290.664062 130.953125 282.660156 C 111.003906 274.242188 56.46875 208.660156 56.46875 208.660156 "/>
<path style=" stroke:none;fill-rule:nonzero;fill:rgb(30.198669%,46.669006%,30.589294%);fill-opacity:1;" d="M 16.445312 70.957031 C -0.0390625 73.035156 0.570312 77.894531 1.324219 83.898438 L 13.382812 179.691406 C 13.40625 179.878906 13.445312 180.058594 13.476562 180.246094 C 17.261719 212.203125 24.140625 253.964844 26.582031 281.6875 C 26.949219 286.230469 31.886719 289.328125 37.609375 288.609375 C 43.332031 287.886719 47.347656 283.660156 46.578125 279.167969 C 42.542969 254.574219 34.953125 218.722656 29.214844 188.730469 L 31.230469 188.476562 C 36.644531 187.796875 40.417969 182.378906 39.660156 176.378906 L 27.605469 80.585938 C 26.851562 74.585938 21.851562 70.273438 16.445312 70.957031 "/>
</g>
</svg>
