<?xml version="1.0" encoding="UTF-8"?>
<svg xmlns="http://www.w3.org/2000/svg" xmlns:xlink="http://www.w3.org/1999/xlink" width="375pt" height="374.999991pt" viewBox="0 0 375 374.999991" version="1.2">
<g id="surface1">
<path style=" stroke:none;fill-rule:nonzero;fill:rgb(100%,87.059021%,34.899902%);fill-opacity:1;" d="M 369 184.5 C 369 187.519531 368.925781 190.539062 368.777344 193.554688 C 368.628906 196.570312 368.40625 199.578125 368.113281 202.585938 C 367.816406 205.589844 367.445312 208.585938 367.003906 211.570312 C 366.558594 214.558594 366.042969 217.53125 365.453125 220.492188 C 364.867188 223.457031 364.203125 226.402344 363.472656 229.328125 C 362.738281 232.257812 361.933594 235.167969 361.054688 238.058594 C 360.179688 240.945312 359.230469 243.8125 358.214844 246.65625 C 357.199219 249.5 356.109375 252.316406 354.957031 255.105469 C 353.800781 257.894531 352.578125 260.652344 351.285156 263.382812 C 349.996094 266.113281 348.636719 268.808594 347.214844 271.472656 C 345.792969 274.136719 344.304688 276.761719 342.75 279.351562 C 341.199219 281.941406 339.582031 284.492188 337.90625 287.003906 C 336.230469 289.511719 334.492188 291.980469 332.691406 294.40625 C 330.894531 296.832031 329.035156 299.210938 327.121094 301.546875 C 325.203125 303.878906 323.234375 306.164062 321.207031 308.402344 C 319.175781 310.640625 317.097656 312.824219 314.960938 314.960938 C 312.824219 317.097656 310.640625 319.175781 308.402344 321.207031 C 306.164062 323.234375 303.878906 325.203125 301.546875 327.121094 C 299.210938 329.035156 296.832031 330.894531 294.40625 332.691406 C 291.980469 334.492188 289.511719 336.230469 287.003906 337.90625 C 284.492188 339.582031 281.941406 341.199219 279.351562 342.75 C 276.761719 344.304688 274.136719 345.792969 271.472656 347.214844 C 268.808594 348.636719 266.113281 349.996094 263.382812 351.285156 C 260.652344 352.578125 257.894531 353.800781 255.105469 354.957031 C 252.316406 356.109375 249.5 357.199219 246.65625 358.214844 C 243.8125 359.230469 240.945312 360.179688 238.058594 361.054688 C 235.167969 361.933594 232.257812 362.738281 229.328125 363.472656 C 226.402344 364.203125 223.457031 364.867188 220.492188 365.453125 C 217.53125 366.042969 214.558594 366.558594 211.570312 367.003906 C 208.585938 367.445312 205.589844 367.816406 202.585938 368.113281 C 199.578125 368.40625 196.570312 368.628906 193.554688 368.777344 C 190.539062 368.925781 187.519531 369 184.5 369 C 181.480469 369 178.460938 368.925781 175.445312 368.777344 C 172.429688 368.628906 169.421875 368.40625 166.414062 368.113281 C 163.410156 367.816406 160.414062 367.445312 157.429688 367.003906 C 154.441406 366.558594 151.46875 366.042969 148.503906 365.453125 C 145.542969 364.867188 142.597656 364.203125 139.671875 363.472656 C 136.742188 362.738281 133.832031 361.933594 130.941406 361.054688 C 128.054688 360.179688 125.1875 359.230469 122.34375 358.214844 C 119.5 357.199219 116.683594 356.109375 113.894531 354.957031 C 111.105469 353.800781 108.34375 352.578125 105.617188 351.285156 C 102.886719 349.996094 100.191406 348.636719 97.527344 347.214844 C 94.863281 345.792969 92.238281 344.304688 89.648438 342.75 C 87.058594 341.199219 84.507812 339.582031 81.996094 337.90625 C 79.488281 336.230469 77.019531 334.492188 74.59375 332.691406 C 72.167969 330.894531 69.789062 329.035156 67.453125 327.121094 C 65.121094 325.203125 62.835938 323.234375 60.597656 321.207031 C 58.359375 319.175781 56.175781 317.097656 54.039062 314.960938 C 51.902344 312.824219 49.824219 310.640625 47.792969 308.402344 C 45.765625 306.164062 43.796875 303.878906 41.878906 301.546875 C 39.964844 299.210938 38.105469 296.832031 36.308594 294.40625 C 34.507812 291.980469 32.769531 289.511719 31.09375 287.003906 C 29.417969 284.492188 27.800781 281.941406 26.25 279.351562 C 24.695312 276.761719 23.207031 274.136719 21.785156 271.472656 C 20.363281 268.808594 19.003906 266.113281 17.714844 263.382812 C 16.421875 260.652344 15.199219 257.894531 14.042969 255.105469 C 12.890625 252.316406 11.800781 249.5 10.785156 246.65625 C 9.769531 243.8125 8.820312 240.945312 7.945312 238.058594 C 7.066406 235.167969 6.261719 232.257812 5.527344 229.328125 C 4.796875 226.402344 4.132812 223.457031 3.546875 220.492188 C 2.957031 217.53125 2.441406 214.558594 1.996094 211.570312 C 1.554688 208.585938 1.183594 205.589844 0.886719 202.585938 C 0.59375 199.578125 0.371094 196.570312 0.222656 193.554688 C 0.0742188 190.539062 0 187.519531 0 184.5 C 0 181.480469 0.0742188 178.460938 0.222656 175.445312 C 0.371094 172.429688 0.59375 169.421875 0.886719 166.414062 C 1.183594 163.410156 1.554688 160.414062 1.996094 157.429688 C 2.441406 154.441406 2.957031 151.46875 3.546875 148.503906 C 4.132812 145.542969 4.796875 142.597656 5.527344 139.671875 C 6.261719 136.742188 7.066406 133.832031 7.945312 130.941406 C 8.820312 128.054688 9.769531 125.1875 10.785156 122.34375 C 11.800781 119.5 12.890625 116.683594 14.042969 113.894531 C 15.199219 111.105469 16.421875 108.34375 17.714844 105.617188 C 19.003906 102.886719 20.363281 100.191406 21.785156 97.527344 C 23.207031 94.863281 24.695312 92.238281 26.25 89.648438 C 27.800781 87.058594 29.417969 84.507812 31.09375 81.996094 C 32.769531 79.488281 34.507812 77.019531 36.308594 74.59375 C 38.105469 72.167969 39.964844 69.789062 41.878906 67.453125 C 43.796875 65.121094 45.765625 62.835938 47.792969 60.597656 C 49.824219 58.359375 51.902344 56.175781 54.039062 54.039062 C 56.175781 51.902344 58.359375 49.820312 60.597656 47.792969 C 62.835938 45.765625 65.121094 43.796875 67.453125 41.878906 C 69.789062 39.964844 72.167969 38.105469 74.59375 36.308594 C 77.019531 34.507812 79.488281 32.769531 81.996094 31.09375 C 84.507812 29.417969 87.058594 27.800781 89.648438 26.25 C 92.238281 24.695312 94.863281 23.207031 97.527344 21.785156 C 100.191406 20.363281 102.886719 19.003906 105.617188 17.714844 C 108.34375 16.421875 111.105469 15.199219 113.894531 14.042969 C 116.683594 12.890625 119.5 11.800781 122.34375 10.785156 C 125.1875 9.769531 128.054688 8.820312 130.941406 7.945312 C 133.832031 7.066406 136.742188 6.261719 139.671875 5.527344 C 142.597656 4.796875 145.542969 4.132812 148.503906 3.546875 C 151.46875 2.957031 154.441406 2.441406 157.429688 1.996094 C 160.414062 1.554688 163.410156 1.183594 166.414062 0.886719 C 169.421875 0.59375 172.429688 0.371094 175.445312 0.222656 C 178.460938 0.0742188 181.480469 0 184.5 0 C 187.519531 0 190.539062 0.0742188 193.554688 0.222656 C 196.570312 0.371094 199.578125 0.59375 202.585938 0.886719 C 205.589844 1.183594 208.585938 1.554688 211.570312 1.996094 C 214.558594 2.441406 217.53125 2.957031 220.492188 3.546875 C 223.457031 4.132812 226.402344 4.796875 229.328125 5.527344 C 232.257812 6.261719 235.167969 7.066406 238.058594 7.945312 C 240.945312 8.820312 243.8125 9.769531 246.65625 10.785156 C 249.5 11.800781 252.316406 12.890625 255.105469 14.042969 C 257.894531 15.199219 260.652344 16.421875 263.382812 17.714844 C 266.113281 19.003906 268.808594 20.363281 271.472656 21.785156 C 274.136719 23.207031 276.761719 24.695312 279.351562 26.25 C 281.941406 27.800781 284.492188 29.417969 287.003906 31.09375 C 289.511719 32.769531 291.980469 34.507812 294.40625 36.308594 C 296.832031 38.105469 299.210938 39.964844 301.546875 41.878906 C 303.878906 43.796875 306.164062 45.765625 308.402344 47.792969 C 310.640625 49.820312 312.824219 51.902344 314.960938 54.039062 C 317.097656 56.175781 319.175781 58.359375 321.207031 60.597656 C 323.234375 62.835938 325.203125 65.121094 327.121094 67.453125 C 329.035156 69.789062 330.894531 72.167969 332.691406 74.59375 C 334.492188 77.019531 336.230469 79.488281 337.90625 81.996094 C 339.582031 84.507812 341.199219 87.058594 342.75 89.648438 C 344.304688 92.238281 345.792969 94.863281 347.214844 97.527344 C 348.636719 100.191406 349.996094 102.886719 351.285156 105.617188 C 352.578125 108.34375 353.800781 111.105469 354.957031 113.894531 C 356.109375 116.683594 357.199219 119.5 358.214844 122.34375 C 359.230469 125.1875 360.179688 128.054688 361.054688 130.941406 C 361.933594 133.832031 362.738281 136.742188 363.472656 139.671875 C 364.203125 142.597656 364.867188 145.542969 365.453125 148.503906 C 366.042969 151.46875 366.558594 154.441406 367.003906 157.429688 C 367.445312 160.414062 367.816406 163.410156 368.113281 166.414062 C 368.40625 169.421875 368.628906 172.429688 368.777344 175.445312 C 368.925781 178.460938 369 181.480469 369 184.5 Z M 369 184.5 "/>
<path style=" stroke:none;fill-rule:nonzero;fill:rgb(12.159729%,12.939453%,16.859436%);fill-opacity:1;" d="M 184.5 57.980469 C 183.046875 57.980469 181.863281 56.800781 181.863281 55.34375 L 181.863281 36.898438 C 181.863281 35.445312 183.046875 34.265625 184.5 34.265625 C 185.953125 34.265625 187.136719 35.445312 187.136719 36.898438 L 187.136719 55.34375 C 187.136719 56.800781 185.953125 57.980469 184.5 57.980469 Z M 184.5 57.980469 "/>
<path style=" stroke:none;fill-rule:nonzero;fill:rgb(12.159729%,12.939453%,16.859436%);fill-opacity:1;" d="M 55.34375 187.136719 L 36.898438 187.136719 C 35.445312 187.136719 34.265625 185.953125 34.265625 184.5 C 34.265625 183.046875 35.445312 181.863281 36.898438 181.863281 L 55.34375 181.863281 C 56.800781 181.863281 57.980469 183.046875 57.980469 184.5 C 57.980469 185.953125 56.800781 187.136719 55.34375 187.136719 Z M 55.34375 187.136719 "/>
<path style=" stroke:none;fill-rule:nonzero;fill:rgb(12.159729%,12.939453%,16.859436%);fill-opacity:1;" d="M 80.132812 291.503906 C 79.457031 291.503906 78.78125 291.246094 78.265625 290.734375 C 77.238281 289.707031 77.238281 288.035156 78.265625 287.007812 L 91.304688 273.964844 C 92.335938 272.9375 94.003906 272.9375 95.035156 273.964844 C 96.0625 274.996094 96.0625 276.664062 95.035156 277.695312 L 81.992188 290.734375 C 81.480469 291.246094 80.804688 291.503906 80.132812 291.503906 Z M 80.132812 291.503906 "/>
<path style=" stroke:none;fill-rule:nonzero;fill:rgb(12.159729%,12.939453%,16.859436%);fill-opacity:1;" d="M 184.5 334.734375 C 183.046875 334.734375 181.863281 333.554688 181.863281 332.101562 L 181.863281 313.65625 C 181.863281 312.199219 183.046875 311.019531 184.5 311.019531 C 185.953125 311.019531 187.136719 312.199219 187.136719 313.65625 L 187.136719 332.101562 C 187.136719 333.554688 185.953125 334.734375 184.5 334.734375 Z M 184.5 334.734375 "/>
<path style=" stroke:none;fill-rule:nonzero;fill:rgb(12.159729%,12.939453%,16.859436%);fill-opacity:1;" d="M 288.867188 291.503906 C 288.195312 291.503906 287.519531 291.246094 287.003906 290.734375 L 273.960938 277.695312 C 272.933594 276.664062 272.933594 274.996094 273.960938 273.964844 C 274.988281 272.9375 276.660156 272.9375 277.6875 273.964844 L 290.730469 287.007812 C 291.757812 288.035156 291.757812 289.707031 290.730469 290.734375 C 290.21875 291.246094 289.542969 291.503906 288.867188 291.503906 Z M 288.867188 291.503906 "/>
<path style=" stroke:none;fill-rule:nonzero;fill:rgb(12.159729%,12.939453%,16.859436%);fill-opacity:1;" d="M 332.101562 187.136719 L 313.65625 187.136719 C 312.199219 187.136719 311.019531 185.953125 311.019531 184.5 C 311.019531 183.046875 312.199219 181.863281 313.65625 181.863281 L 332.101562 181.863281 C 333.554688 181.863281 334.734375 183.046875 334.734375 184.5 C 334.734375 185.953125 333.554688 187.136719 332.101562 187.136719 Z M 332.101562 187.136719 "/>
<path style=" stroke:none;fill-rule:nonzero;fill:rgb(12.159729%,12.939453%,16.859436%);fill-opacity:1;" d="M 275.828125 95.808594 C 275.152344 95.808594 274.476562 95.550781 273.960938 95.039062 C 272.933594 94.011719 272.933594 92.339844 273.960938 91.3125 L 287.003906 78.269531 C 288.03125 77.242188 289.703125 77.242188 290.730469 78.269531 C 291.757812 79.296875 291.757812 80.96875 290.730469 81.996094 L 277.6875 95.039062 C 277.175781 95.550781 276.503906 95.808594 275.828125 95.808594 Z M 275.828125 95.808594 "/>
<path style=" stroke:none;fill-rule:nonzero;fill:rgb(79.219055%,88.62915%,39.608765%);fill-opacity:1;" d="M 184.5 5.269531 C 142.703125 5.269531 104.285156 19.613281 73.800781 43.601562 L 73.800781 21.085938 L 47.441406 21.085938 L 47.441406 94.886719 L 121.242188 94.886719 L 121.242188 68.527344 L 93.257812 68.527344 C 118.375 48.738281 150.046875 36.898438 184.5 36.898438 C 266.015625 36.898438 332.101562 102.984375 332.101562 184.5 C 332.101562 266.015625 266.015625 332.101562 184.5 332.101562 C 102.984375 332.101562 36.898438 266.015625 36.898438 184.5 C 36.898438 167.53125 39.855469 151.28125 45.132812 136.113281 L 18.929688 115.972656 C 10.167969 137.089844 5.269531 160.210938 5.269531 184.5 C 5.269531 283.488281 85.511719 363.730469 184.5 363.730469 C 283.488281 363.730469 363.730469 283.488281 363.730469 184.5 C 363.730469 85.511719 283.488281 5.269531 184.5 5.269531 Z M 184.5 5.269531 "/>
<path style=" stroke:none;fill-rule:nonzero;fill:rgb(12.159729%,12.939453%,16.859436%);fill-opacity:1;" d="M 184.5 369 C 82.765625 369 0 286.234375 0 184.5 C 0 160.171875 4.726562 136.433594 14.058594 113.953125 C 14.6875 112.441406 15.984375 111.304688 17.570312 110.878906 C 19.160156 110.46875 20.847656 110.792969 22.144531 111.792969 L 48.355469 131.933594 C 50.15625 133.320312 50.871094 135.695312 50.121094 137.847656 C 44.84375 152.996094 42.171875 168.691406 42.171875 184.5 C 42.171875 262.980469 106.019531 326.828125 184.5 326.828125 C 262.980469 326.828125 326.828125 262.980469 326.828125 184.5 C 326.828125 106.019531 262.980469 42.171875 184.5 42.171875 C 157.785156 42.171875 132.308594 49.417969 109.953125 63.257812 L 121.242188 63.257812 C 124.152344 63.257812 126.515625 65.617188 126.515625 68.527344 L 126.515625 94.886719 C 126.515625 97.796875 124.152344 100.15625 121.242188 100.15625 L 47.441406 100.15625 C 44.53125 100.15625 42.171875 97.796875 42.171875 94.886719 L 42.171875 21.085938 C 42.171875 18.175781 44.53125 15.8125 47.441406 15.8125 L 73.800781 15.8125 C 76.710938 15.8125 79.070312 18.175781 79.070312 21.085938 L 79.070312 33.125 C 110.089844 11.417969 146.3125 0 184.5 0 C 286.234375 0 369 82.765625 369 184.5 C 369 286.234375 286.234375 369 184.5 369 Z M 21.277344 124.425781 C 14.152344 143.695312 10.542969 163.871094 10.542969 184.5 C 10.542969 280.417969 88.582031 358.457031 184.5 358.457031 C 280.417969 358.457031 358.457031 280.417969 358.457031 184.5 C 358.457031 88.582031 280.417969 10.542969 184.5 10.542969 C 145.148438 10.542969 107.996094 23.40625 77.058594 47.742188 C 75.472656 48.992188 73.316406 49.222656 71.496094 48.339844 C 69.683594 47.457031 68.527344 45.617188 68.527344 43.601562 L 68.527344 26.355469 L 52.714844 26.355469 L 52.714844 89.613281 L 115.972656 89.613281 L 115.972656 73.800781 L 93.25 73.800781 C 91.007812 73.800781 89.007812 72.375 88.269531 70.257812 C 87.53125 68.132812 88.222656 65.777344 89.988281 64.390625 C 117.195312 42.957031 149.871094 31.628906 184.5 31.628906 C 268.796875 31.628906 337.371094 100.203125 337.371094 184.5 C 337.371094 268.796875 268.796875 337.371094 184.5 337.371094 C 100.203125 337.371094 31.628906 268.796875 31.628906 184.5 C 31.628906 168.769531 34.089844 153.144531 38.945312 138.007812 Z M 21.277344 124.425781 "/>
<path style=" stroke:none;fill-rule:nonzero;fill:rgb(12.159729%,12.939453%,16.859436%);fill-opacity:1;" d="M 184.5 189.769531 C 181.589844 189.769531 179.230469 187.410156 179.230469 184.5 L 179.230469 79.066406 C 179.230469 76.15625 181.589844 73.792969 184.5 73.792969 C 187.410156 73.792969 189.769531 76.15625 189.769531 79.066406 L 189.769531 184.5 C 189.769531 187.410156 187.410156 189.769531 184.5 189.769531 Z M 184.5 189.769531 "/>
<path style=" stroke:none;fill-rule:nonzero;fill:rgb(12.159729%,12.939453%,16.859436%);fill-opacity:1;" d="M 268.84375 189.769531 L 184.5 189.769531 C 181.589844 189.769531 179.230469 187.410156 179.230469 184.5 C 179.230469 181.589844 181.589844 179.230469 184.5 179.230469 L 268.84375 179.230469 C 271.753906 179.230469 274.113281 181.589844 274.113281 184.5 C 274.113281 187.410156 271.753906 189.769531 268.84375 189.769531 Z M 268.84375 189.769531 "/>
<path style=" stroke:none;fill-rule:nonzero;fill:rgb(43.919373%,73.329163%,16.859436%);fill-opacity:1;" d="M 241.261719 127.738281 C 236.117188 122.59375 227.773438 122.59375 222.621094 127.738281 C 220.050781 130.308594 212.015625 138.34375 209.445312 140.914062 C 205.621094 144.738281 204.652344 150.308594 206.503906 155.039062 L 109.609375 251.9375 C 107.546875 254 107.546875 257.328125 109.609375 259.390625 C 110.636719 260.417969 111.984375 260.9375 113.335938 260.9375 C 114.683594 260.9375 116.035156 260.417969 117.0625 259.390625 L 213.957031 162.496094 C 218.683594 164.347656 224.261719 163.378906 228.078125 159.554688 C 230.652344 156.984375 238.683594 148.949219 241.257812 146.378906 C 246.40625 141.226562 246.40625 132.886719 241.261719 127.738281 Z M 241.261719 127.738281 "/>
<path style=" stroke:none;fill-rule:nonzero;fill:rgb(12.159729%,12.939453%,16.859436%);fill-opacity:1;" d="M 113.335938 263.570312 C 111.226562 263.570312 109.238281 262.75 107.742188 261.257812 C 104.660156 258.171875 104.660156 253.160156 107.742188 250.078125 L 203.5 154.320312 C 202.046875 148.90625 203.566406 143.070312 207.582031 139.054688 L 220.761719 125.875 C 226.734375 119.898438 237.152344 119.898438 243.125 125.875 C 246.113281 128.859375 247.757812 132.835938 247.757812 137.058594 C 247.757812 141.28125 246.113281 145.253906 243.125 148.238281 L 229.945312 161.417969 C 225.921875 165.433594 220.09375 166.945312 214.679688 165.5 L 118.929688 261.257812 C 117.429688 262.75 115.445312 263.570312 113.335938 263.570312 Z M 231.941406 126.515625 C 229.128906 126.515625 226.480469 127.609375 224.488281 129.601562 L 211.308594 142.78125 C 208.351562 145.738281 207.429688 150.171875 208.960938 154.082031 C 209.339844 155.058594 209.105469 156.171875 208.367188 156.910156 L 111.46875 253.796875 C 110.441406 254.824219 110.441406 256.496094 111.46875 257.523438 C 112.464844 258.515625 114.199219 258.515625 115.195312 257.523438 L 212.089844 160.632812 C 212.832031 159.894531 213.941406 159.667969 214.917969 160.039062 C 218.816406 161.5625 223.261719 160.640625 226.21875 157.691406 L 239.398438 144.511719 C 241.390625 142.519531 242.484375 139.871094 242.484375 137.058594 C 242.484375 134.242188 241.390625 131.597656 239.398438 129.601562 C 237.402344 127.609375 234.757812 126.515625 231.941406 126.515625 Z M 231.941406 126.515625 "/>
<path style=" stroke:none;fill-rule:nonzero;fill:rgb(94.509888%,69.799805%,29.019165%);fill-opacity:1;" d="M 202.949219 184.5 C 202.949219 185.105469 202.921875 185.707031 202.859375 186.308594 C 202.800781 186.910156 202.714844 187.507812 202.59375 188.097656 C 202.476562 188.691406 202.332031 189.277344 202.15625 189.855469 C 201.980469 190.433594 201.777344 191.003906 201.546875 191.558594 C 201.3125 192.117188 201.054688 192.664062 200.769531 193.195312 C 200.488281 193.730469 200.175781 194.246094 199.839844 194.75 C 199.503906 195.253906 199.144531 195.738281 198.761719 196.203125 C 198.378906 196.671875 197.972656 197.117188 197.546875 197.546875 C 197.117188 197.972656 196.671875 198.378906 196.203125 198.761719 C 195.738281 199.144531 195.253906 199.503906 194.75 199.839844 C 194.246094 200.175781 193.730469 200.488281 193.195312 200.769531 C 192.664062 201.054688 192.117188 201.3125 191.558594 201.546875 C 191.003906 201.777344 190.433594 201.980469 189.855469 202.15625 C 189.277344 202.332031 188.691406 202.476562 188.097656 202.59375 C 187.507812 202.714844 186.910156 202.800781 186.308594 202.859375 C 185.707031 202.921875 185.105469 202.949219 184.5 202.949219 C 183.894531 202.949219 183.292969 202.921875 182.691406 202.859375 C 182.089844 202.800781 181.492188 202.714844 180.902344 202.59375 C 180.308594 202.476562 179.722656 202.332031 179.144531 202.15625 C 178.566406 201.980469 177.996094 201.777344 177.4375 201.546875 C 176.882812 201.3125 176.335938 201.054688 175.800781 200.769531 C 175.269531 200.488281 174.753906 200.175781 174.25 199.839844 C 173.746094 199.503906 173.261719 199.144531 172.796875 198.761719 C 172.328125 198.378906 171.882812 197.972656 171.453125 197.546875 C 171.027344 197.117188 170.621094 196.671875 170.238281 196.203125 C 169.855469 195.738281 169.496094 195.253906 169.160156 194.75 C 168.824219 194.246094 168.511719 193.730469 168.230469 193.195312 C 167.945312 192.664062 167.6875 192.117188 167.453125 191.558594 C 167.222656 191.003906 167.019531 190.433594 166.84375 189.855469 C 166.667969 189.277344 166.523438 188.691406 166.40625 188.097656 C 166.285156 187.507812 166.199219 186.910156 166.140625 186.308594 C 166.078125 185.707031 166.050781 185.105469 166.050781 184.5 C 166.050781 183.894531 166.078125 183.292969 166.140625 182.691406 C 166.199219 182.089844 166.285156 181.492188 166.40625 180.902344 C 166.523438 180.308594 166.667969 179.722656 166.84375 179.144531 C 167.019531 178.566406 167.222656 177.996094 167.453125 177.4375 C 167.6875 176.882812 167.945312 176.335938 168.230469 175.800781 C 168.511719 175.269531 168.824219 174.753906 169.160156 174.25 C 169.496094 173.746094 169.855469 173.261719 170.238281 172.796875 C 170.621094 172.328125 171.027344 171.882812 171.453125 171.453125 C 171.882812 171.027344 172.328125 170.621094 172.796875 170.238281 C 173.261719 169.855469 173.746094 169.496094 174.25 169.160156 C 174.753906 168.824219 175.269531 168.511719 175.800781 168.230469 C 176.335938 167.945312 176.882812 167.6875 177.4375 167.453125 C 177.996094 167.222656 178.566406 167.019531 179.144531 166.84375 C 179.722656 166.667969 180.308594 166.523438 180.902344 166.40625 C 181.492188 166.285156 182.089844 166.199219 182.691406 166.140625 C 183.292969 166.078125 183.894531 166.050781 184.5 166.050781 C 185.105469 166.050781 185.707031 166.078125 186.308594 166.140625 C 186.910156 166.199219 187.507812 166.285156 188.097656 166.40625 C 188.691406 166.523438 189.277344 166.667969 189.855469 166.84375 C 190.433594 167.019531 191.003906 167.222656 191.558594 167.453125 C 192.117188 167.6875 192.664062 167.945312 193.195312 168.230469 C 193.730469 168.511719 194.246094 168.824219 194.75 169.160156 C 195.253906 169.496094 195.738281 169.855469 196.203125 170.238281 C 196.671875 170.621094 197.117188 171.027344 197.546875 171.453125 C 197.972656 171.882812 198.378906 172.328125 198.761719 172.796875 C 199.144531 173.261719 199.503906 173.746094 199.839844 174.25 C 200.175781 174.753906 200.488281 175.269531 200.769531 175.800781 C 201.054688 176.335938 201.3125 176.882812 201.546875 177.4375 C 201.777344 177.996094 201.980469 178.566406 202.15625 179.144531 C 202.332031 179.722656 202.476562 180.308594 202.59375 180.902344 C 202.714844 181.492188 202.800781 182.089844 202.859375 182.691406 C 202.921875 183.292969 202.949219 183.894531 202.949219 184.5 Z M 202.949219 184.5 "/>
<path style=" stroke:none;fill-rule:nonzero;fill:rgb(12.159729%,12.939453%,16.859436%);fill-opacity:1;" d="M 184.5 205.585938 C 172.871094 205.585938 163.414062 196.128906 163.414062 184.5 C 163.414062 172.871094 172.871094 163.414062 184.5 163.414062 C 196.128906 163.414062 205.585938 172.871094 205.585938 184.5 C 205.585938 196.128906 196.128906 205.585938 184.5 205.585938 Z M 184.5 168.6875 C 175.78125 168.6875 168.6875 175.78125 168.6875 184.5 C 168.6875 193.21875 175.78125 200.3125 184.5 200.3125 C 193.21875 200.3125 200.3125 193.21875 200.3125 184.5 C 200.3125 175.78125 193.21875 168.6875 184.5 168.6875 Z M 184.5 168.6875 "/>
</g>
</svg>
