<?xml version="1.0" encoding="UTF-8"?>
<svg xmlns="http://www.w3.org/2000/svg" xmlns:xlink="http://www.w3.org/1999/xlink" width="375pt" height="374.999991pt" viewBox="0 0 375 374.999991" version="1.2">
<defs>
<clipPath id="clip1">
  <path d="M 53.855469 56.527344 L 320.574219 56.527344 L 320.574219 231 L 53.855469 231 Z M 53.855469 56.527344 "/>
</clipPath>
</defs>
<g id="surface1">
<path style=" stroke:none;fill-rule:nonzero;fill:rgb(78.819275%,88.62915%,39.608765%);fill-opacity:1;" d="M 187.5 0 C 184.429688 0 181.363281 0.0742188 178.300781 0.226562 C 175.234375 0.375 172.175781 0.601562 169.121094 0.902344 C 166.066406 1.203125 163.023438 1.578125 159.988281 2.03125 C 156.953125 2.480469 153.929688 3.003906 150.921875 3.601562 C 147.910156 4.203125 144.917969 4.875 141.941406 5.617188 C 138.964844 6.363281 136.007812 7.183594 133.070312 8.074219 C 130.136719 8.964844 127.222656 9.925781 124.332031 10.960938 C 121.445312 11.996094 118.582031 13.097656 115.746094 14.273438 C 112.910156 15.445312 110.105469 16.691406 107.332031 18.003906 C 104.558594 19.3125 101.820312 20.691406 99.113281 22.140625 C 96.40625 23.585938 93.738281 25.097656 91.105469 26.675781 C 88.472656 28.253906 85.882812 29.894531 83.332031 31.597656 C 80.777344 33.304688 78.269531 35.070312 75.804688 36.898438 C 73.339844 38.726562 70.921875 40.613281 68.550781 42.558594 C 66.179688 44.507812 63.855469 46.511719 61.582031 48.570312 C 59.308594 50.632812 57.085938 52.746094 54.917969 54.917969 C 52.746094 57.085938 50.632812 59.308594 48.570312 61.582031 C 46.511719 63.855469 44.507812 66.179688 42.558594 68.550781 C 40.613281 70.921875 38.726562 73.339844 36.898438 75.804688 C 35.070312 78.269531 33.304688 80.777344 31.597656 83.332031 C 29.894531 85.882812 28.253906 88.472656 26.675781 91.105469 C 25.097656 93.738281 23.585938 96.40625 22.140625 99.113281 C 20.691406 101.820312 19.3125 104.558594 18.003906 107.332031 C 16.691406 110.105469 15.445312 112.910156 14.273438 115.746094 C 13.097656 118.582031 11.996094 121.445312 10.960938 124.332031 C 9.925781 127.222656 8.964844 130.136719 8.074219 133.070312 C 7.183594 136.007812 6.363281 138.964844 5.621094 141.941406 C 4.875 144.917969 4.203125 147.910156 3.601562 150.921875 C 3.003906 153.929688 2.480469 156.953125 2.03125 159.988281 C 1.578125 163.023438 1.203125 166.066406 0.902344 169.121094 C 0.601562 172.175781 0.375 175.234375 0.226562 178.300781 C 0.0742188 181.363281 0 184.429688 0 187.5 C 0 190.570312 0.0742188 193.636719 0.226562 196.699219 C 0.375 199.765625 0.601562 202.824219 0.902344 205.878906 C 1.203125 208.933594 1.578125 211.976562 2.03125 215.011719 C 2.480469 218.046875 3.003906 221.070312 3.601562 224.078125 C 4.203125 227.089844 4.875 230.082031 5.621094 233.058594 C 6.363281 236.035156 7.183594 238.992188 8.074219 241.929688 C 8.964844 244.863281 9.925781 247.777344 10.960938 250.667969 C 11.996094 253.554688 13.097656 256.417969 14.273438 259.253906 C 15.445312 262.089844 16.691406 264.890625 18.003906 267.667969 C 19.3125 270.441406 20.691406 273.179688 22.140625 275.886719 C 23.585938 278.59375 25.097656 281.261719 26.675781 283.894531 C 28.253906 286.527344 29.894531 289.117188 31.597656 291.667969 C 33.304688 294.222656 35.070312 296.730469 36.898438 299.195312 C 38.726562 301.660156 40.613281 304.078125 42.558594 306.449219 C 44.507812 308.820312 46.511719 311.144531 48.570312 313.417969 C 50.632812 315.691406 52.746094 317.914062 54.917969 320.082031 C 57.085938 322.253906 59.308594 324.367188 61.582031 326.429688 C 63.855469 328.488281 66.179688 330.492188 68.550781 332.4375 C 70.921875 334.386719 73.339844 336.273438 75.804688 338.101562 C 78.269531 339.929688 80.777344 341.695312 83.332031 343.402344 C 85.882812 345.105469 88.472656 346.746094 91.105469 348.324219 C 93.738281 349.902344 96.40625 351.414062 99.113281 352.859375 C 101.820312 354.308594 104.558594 355.6875 107.332031 356.996094 C 110.105469 358.308594 112.910156 359.554688 115.746094 360.726562 C 118.582031 361.902344 121.445312 363.003906 124.332031 364.039062 C 127.222656 365.074219 130.136719 366.035156 133.070312 366.925781 C 136.007812 367.816406 138.964844 368.636719 141.941406 369.378906 C 144.917969 370.125 147.910156 370.796875 150.921875 371.398438 C 153.929688 371.996094 156.953125 372.519531 159.988281 372.96875 C 163.023438 373.421875 166.066406 373.796875 169.121094 374.097656 C 172.175781 374.398438 175.234375 374.625 178.300781 374.773438 C 181.363281 374.925781 184.429688 375 187.5 375 C 190.570312 375 193.636719 374.925781 196.699219 374.773438 C 199.765625 374.625 202.824219 374.398438 205.878906 374.097656 C 208.933594 373.796875 211.976562 373.421875 215.011719 372.96875 C 218.046875 372.519531 221.070312 371.996094 224.078125 371.398438 C 227.089844 370.796875 230.082031 370.125 233.058594 369.378906 C 236.035156 368.636719 238.992188 367.816406 241.929688 366.925781 C 244.863281 366.035156 247.777344 365.074219 250.667969 364.039062 C 253.554688 363.003906 256.417969 361.902344 259.253906 360.726562 C 262.089844 359.554688 264.890625 358.308594 267.667969 356.996094 C 270.441406 355.6875 273.179688 354.308594 275.886719 352.859375 C 278.59375 351.414062 281.261719 349.902344 283.894531 348.324219 C 286.527344 346.746094 289.117188 345.105469 291.667969 343.402344 C 294.222656 341.695312 296.730469 339.929688 299.195312 338.101562 C 301.660156 336.273438 304.078125 334.386719 306.449219 332.4375 C 308.820312 330.492188 311.144531 328.488281 313.417969 326.429688 C 315.691406 324.367188 317.914062 322.253906 320.082031 320.082031 C 322.253906 317.914062 324.367188 315.691406 326.429688 313.417969 C 328.488281 311.144531 330.492188 308.820312 332.4375 306.449219 C 334.386719 304.078125 336.273438 301.660156 338.101562 299.195312 C 339.929688 296.730469 341.695312 294.222656 343.402344 291.667969 C 345.105469 289.117188 346.746094 286.527344 348.324219 283.894531 C 349.902344 281.261719 351.414062 278.59375 352.859375 275.886719 C 354.308594 273.179688 355.6875 270.441406 356.996094 267.667969 C 358.308594 264.890625 359.554688 262.089844 360.726562 259.253906 C 361.902344 256.417969 363.003906 253.554688 364.039062 250.667969 C 365.074219 247.777344 366.035156 244.863281 366.925781 241.929688 C 367.816406 238.992188 368.636719 236.035156 369.378906 233.058594 C 370.125 230.082031 370.796875 227.089844 371.398438 224.078125 C 371.996094 221.070312 372.519531 218.046875 372.96875 215.011719 C 373.421875 211.976562 373.796875 208.933594 374.097656 205.878906 C 374.398438 202.824219 374.625 199.765625 374.773438 196.699219 C 374.925781 193.636719 375 190.570312 375 187.5 C 375 184.429688 374.925781 181.363281 374.773438 178.300781 C 374.625 175.234375 374.398438 172.175781 374.097656 169.121094 C 373.796875 166.066406 373.421875 163.023438 372.96875 159.988281 C 372.519531 156.953125 371.996094 153.929688 371.398438 150.921875 C 370.796875 147.910156 370.125 144.917969 369.378906 141.941406 C 368.636719 138.964844 367.816406 136.007812 366.925781 133.070312 C 366.035156 130.136719 365.074219 127.222656 364.039062 124.332031 C 363.003906 121.445312 361.902344 118.582031 360.726562 115.746094 C 359.554688 112.910156 358.308594 110.105469 356.996094 107.332031 C 355.6875 104.558594 354.308594 101.820312 352.859375 99.113281 C 351.414062 96.40625 349.902344 93.738281 348.324219 91.105469 C 346.746094 88.472656 345.105469 85.882812 343.402344 83.332031 C 341.695312 80.777344 339.929688 78.269531 338.101562 75.804688 C 336.273438 73.339844 334.386719 70.921875 332.4375 68.550781 C 330.492188 66.179688 328.488281 63.855469 326.429688 61.582031 C 324.367188 59.308594 322.253906 57.085938 320.082031 54.917969 C 317.914062 52.746094 315.691406 50.632812 313.417969 48.570312 C 311.144531 46.511719 308.820312 44.507812 306.449219 42.558594 C 304.078125 40.613281 301.660156 38.726562 299.195312 36.898438 C 296.730469 35.070312 294.222656 33.304688 291.667969 31.597656 C 289.117188 29.894531 286.527344 28.253906 283.894531 26.675781 C 281.261719 25.097656 278.59375 23.585938 275.886719 22.140625 C 273.179688 20.691406 270.441406 19.3125 267.667969 18.003906 C 264.890625 16.691406 262.089844 15.445312 259.253906 14.273438 C 256.417969 13.097656 253.554688 11.996094 250.667969 10.960938 C 247.777344 9.925781 244.863281 8.964844 241.929688 8.074219 C 238.992188 7.183594 236.035156 6.363281 233.058594 5.617188 C 230.082031 4.875 227.089844 4.203125 224.078125 3.601562 C 221.070312 3.003906 218.046875 2.480469 215.011719 2.03125 C 211.976562 1.578125 208.933594 1.203125 205.878906 0.902344 C 202.824219 0.601562 199.765625 0.375 196.699219 0.226562 C 193.636719 0.0742188 190.570312 0 187.5 0 Z M 187.5 0 "/>
<path style=" stroke:none;fill-rule:nonzero;fill:rgb(0%,0%,0%);fill-opacity:1;" d="M 187.351562 374.699219 C 137.332031 374.699219 90.230469 355.230469 54.886719 319.8125 C 19.46875 284.46875 0 237.371094 0 187.351562 C 0 137.332031 19.46875 90.230469 54.886719 54.886719 C 90.230469 19.46875 137.332031 0 187.351562 0 C 237.371094 0 284.46875 19.46875 319.8125 54.886719 C 355.230469 90.304688 374.699219 137.332031 374.699219 187.351562 C 374.699219 237.371094 355.230469 284.46875 319.8125 319.8125 C 284.46875 355.230469 237.371094 374.699219 187.351562 374.699219 Z M 187.351562 11.230469 C 140.324219 11.230469 96.070312 29.578125 62.824219 62.824219 C 29.578125 96.070312 11.230469 140.324219 11.230469 187.351562 C 11.230469 234.375 29.578125 278.628906 62.824219 311.875 C 96.070312 345.121094 140.324219 363.46875 187.351562 363.46875 C 234.375 363.46875 278.628906 345.121094 311.875 311.875 C 345.121094 278.628906 363.46875 234.375 363.46875 187.351562 C 363.46875 140.324219 345.121094 96.070312 311.875 62.824219 C 278.628906 29.578125 234.375 11.230469 187.351562 11.230469 Z M 187.351562 11.230469 "/>
<path style=" stroke:none;fill-rule:nonzero;fill:rgb(13.729858%,12.159729%,12.548828%);fill-opacity:1;" d="M 223.796875 317.539062 L 162.992188 317.539062 C 161.292969 317.539062 159.917969 316.164062 159.917969 314.476562 C 159.917969 266.421875 142 237.125 131.320312 223.9375 L 136.082031 220.070312 C 147.042969 233.601562 165.285156 263.273438 166.023438 311.398438 L 220.765625 311.398438 C 221.890625 252.210938 255.28125 216.566406 256.71875 215.054688 L 261.15625 219.289062 C 260.8125 219.652344 226.871094 256.007812 226.871094 314.476562 C 226.871094 316.164062 225.492188 317.539062 223.796875 317.539062 "/>
<path style=" stroke:none;fill-rule:nonzero;fill:rgb(13.729858%,12.159729%,12.548828%);fill-opacity:1;" d="M 177.984375 257.976562 C 176.652344 257.976562 175.441406 257.101562 175.058594 255.789062 C 168.316406 233.289062 158.59375 220.476562 149.21875 209.28125 L 153.917969 205.339844 C 161.191406 214.023438 168.660156 223.644531 174.921875 237.710938 L 174.921875 211.8125 L 181.058594 211.8125 L 181.058594 254.914062 C 181.058594 256.433594 179.941406 257.726562 178.433594 257.945312 C 178.285156 257.96875 178.128906 257.976562 177.984375 257.976562 "/>
<path style=" stroke:none;fill-rule:nonzero;fill:rgb(13.729858%,12.159729%,12.548828%);fill-opacity:1;" d="M 205.269531 267.539062 C 204.792969 267.539062 204.300781 267.496094 203.8125 267.402344 C 200.199219 266.703125 197.664062 263.648438 197.664062 259.96875 L 197.664062 210.363281 L 203.800781 210.363281 L 203.800781 259.96875 C 203.800781 261 204.519531 261.292969 204.957031 261.367188 C 205.375 261.460938 206.15625 261.449219 206.53125 260.5 C 214.855469 239.421875 226.191406 220.800781 240.238281 205.152344 L 244.800781 209.25 C 231.246094 224.355469 220.296875 242.351562 212.242188 262.753906 C 211.074219 265.714844 208.324219 267.539062 205.269531 267.539062 "/>
<path style=" stroke:none;fill-rule:nonzero;fill:rgb(13.729858%,12.159729%,12.548828%);fill-opacity:1;" d="M 232.671875 196.363281 C 231.503906 196.363281 230.378906 195.683594 229.871094 194.546875 C 227.121094 188.417969 225.722656 181.878906 225.722656 175.113281 C 225.722656 166.097656 228.265625 157.316406 233.078125 149.726562 C 233.984375 148.300781 235.882812 147.871094 237.308594 148.777344 C 238.734375 149.6875 239.164062 151.582031 238.257812 153.011719 C 234.070312 159.609375 231.859375 167.253906 231.859375 175.113281 C 231.859375 181.003906 233.070312 186.707031 235.464844 192.035156 C 236.164062 193.578125 235.476562 195.390625 233.921875 196.089844 C 233.515625 196.269531 233.089844 196.363281 232.671875 196.363281 "/>
<g clip-path="url(#clip1)" clip-rule="nonzero">
<path style=" stroke:none;fill-rule:nonzero;fill:rgb(13.729858%,12.159729%,12.548828%);fill-opacity:1;" d="M 121.527344 83.972656 C 99.832031 83.972656 82.175781 101.644531 82.175781 123.351562 C 82.175781 125.351562 82.332031 127.363281 82.632812 129.324219 C 82.800781 130.472656 82.308594 131.617188 81.371094 132.285156 C 67.972656 141.75 59.980469 157.171875 59.980469 173.539062 C 59.980469 201.367188 82.613281 224.011719 110.429688 224.011719 C 126.628906 224.011719 139.570312 217.683594 148.886719 205.203125 C 149.738281 204.066406 151.269531 203.660156 152.5625 204.234375 C 161.335938 208.058594 170.609375 208.808594 183.640625 208.808594 C 200.9375 208.808594 217.722656 202.617188 230.890625 191.390625 C 231.621094 190.761719 232.597656 190.511719 233.539062 190.722656 C 234.476562 190.929688 235.257812 191.566406 235.664062 192.429688 C 242.394531 207.015625 257.113281 216.441406 273.148438 216.441406 C 295.925781 216.441406 314.449219 197.90625 314.449219 175.113281 C 314.449219 157.953125 304.113281 142.835938 288.121094 136.613281 C 286.601562 136.019531 285.808594 134.320312 286.328125 132.765625 C 287.328125 129.816406 287.839844 126.769531 287.839844 123.726562 C 287.839844 108.140625 275.160156 95.460938 259.585938 95.460938 C 255.832031 95.460938 252.164062 96.191406 248.707031 97.640625 C 247.34375 98.214844 245.757812 97.722656 244.945312 96.472656 C 231.453125 75.476562 208.53125 62.953125 183.640625 62.953125 C 164.347656 62.953125 146.164062 70.429688 132.433594 84.003906 C 131.695312 84.722656 130.652344 85.035156 129.652344 84.816406 C 126.984375 84.265625 124.246094 83.972656 121.527344 83.972656 Z M 110.429688 230.140625 C 79.234375 230.140625 53.855469 204.753906 53.855469 173.539062 C 53.855469 155.804688 62.222656 139.0625 76.328125 128.375 C 76.140625 126.71875 76.046875 125.027344 76.046875 123.351562 C 76.046875 98.253906 96.449219 77.84375 121.527344 77.84375 C 124.121094 77.84375 126.722656 78.0625 129.289062 78.507812 C 144.03125 64.507812 163.273438 56.8125 183.640625 56.8125 C 209.792969 56.8125 233.945312 69.574219 248.726562 91.082031 C 252.226562 89.914062 255.863281 89.332031 259.585938 89.332031 C 278.546875 89.332031 293.964844 104.761719 293.964844 123.726562 C 293.964844 126.507812 293.621094 129.273438 292.945312 131.992188 C 309.824219 139.71875 320.574219 156.347656 320.574219 175.113281 C 320.574219 201.28125 299.300781 222.570312 273.148438 222.570312 C 256.042969 222.570312 240.238281 213.230469 231.878906 198.476562 C 218.097656 209.121094 201.113281 214.941406 183.640625 214.941406 C 171.160156 214.941406 161.410156 214.222656 152.332031 210.761719 C 141.925781 223.625 127.839844 230.140625 110.429688 230.140625 "/>
</g>
<path style=" stroke:none;fill-rule:nonzero;fill:rgb(13.729858%,12.159729%,12.548828%);fill-opacity:1;" d="M 97.082031 161.101562 C 96.46875 161.101562 95.84375 160.925781 95.3125 160.539062 C 85.238281 153.417969 78.402344 142.367188 76.558594 130.222656 C 76.308594 128.542969 77.464844 126.988281 79.132812 126.726562 C 80.808594 126.5 82.371094 127.625 82.621094 129.304688 C 84.214844 139.800781 90.132812 149.363281 98.84375 155.535156 C 100.230469 156.503906 100.5625 158.421875 99.582031 159.800781 C 98.988281 160.652344 98.042969 161.101562 97.082031 161.101562 "/>
<path style=" stroke:none;fill-rule:nonzero;fill:rgb(13.729858%,12.159729%,12.548828%);fill-opacity:1;" d="M 160.648438 110.003906 C 159.449219 110.003906 158.3125 109.296875 157.824219 108.128906 C 152.78125 96.109375 142.175781 87.382812 129.453125 84.773438 C 127.796875 84.441406 126.722656 82.816406 127.070312 81.15625 C 127.414062 79.5 129.027344 78.4375 130.683594 78.769531 C 145.394531 81.78125 157.648438 91.863281 163.472656 105.75 C 164.128906 107.316406 163.398438 109.109375 161.835938 109.765625 C 161.449219 109.933594 161.042969 110.003906 160.648438 110.003906 "/>
</g>
</svg>
